<?xml version="1.0" encoding="UTF-8" standalone="no"?>
<svg
   xmlns:dc="http://purl.org/dc/elements/1.1/"
   xmlns:cc="http://creativecommons.org/ns#"
   xmlns:rdf="http://www.w3.org/1999/02/22-rdf-syntax-ns#"
   xmlns:svg="http://www.w3.org/2000/svg"
   xmlns="http://www.w3.org/2000/svg"
   xmlns:xlink="http://www.w3.org/1999/xlink"
   xmlns:sodipodi="http://sodipodi.sourceforge.net/DTD/sodipodi-0.dtd"
   xmlns:inkscape="http://www.inkscape.org/namespaces/inkscape"
   id="svg4133"
   viewBox="0 0 117.89 200"
   version="1.0"
   inkscape:version="0.48.3.1 r9886"
   width="100%"
   height="100%"
   sodipodi:docname="Bus_stop.svg"
   inkscape:export-filename="/home/andres/kml-tfl-countdown/Bus_stop.png"
   inkscape:export-xdpi="51.299999"
   inkscape:export-ydpi="51.299999">
  <sodipodi:namedview
     pagecolor="#ffffff"
     bordercolor="#666666"
     borderopacity="1"
     objecttolerance="10"
     gridtolerance="10"
     guidetolerance="10"
     inkscape:pageopacity="0"
     inkscape:pageshadow="2"
     inkscape:window-width="1024"
     inkscape:window-height="541"
     id="namedview3318"
     showgrid="false"
     inkscape:zoom="1.1639745"
     inkscape:cx="22.760453"
     inkscape:cy="85.390286"
     inkscape:window-x="0"
     inkscape:window-y="27"
     inkscape:window-maximized="1"
     inkscape:current-layer="svg4133" />
  <title
     id="title4370">Bus stop</title>
  <defs
     id="defs4135">
    <linearGradient
       id="linearGradient3739"
       x1="772.14001"
       spreadMethod="reflect"
       gradientUnits="userSpaceOnUse"
       y1="2977.3999"
       x2="831"
       y2="2977.3999">
      <stop
         id="stop1886"
         offset="0" />
      <stop
         id="stop1888"
         stop-opacity="0"
         offset="1" />
    </linearGradient>
    <filter
       id="filter5458"
       color-interpolation-filters="sRGB">
      <feGaussianBlur
         id="feGaussianBlur5460"
         stdDeviation="1" />
    </filter>
    <linearGradient
       inkscape:collect="always"
       xlink:href="#linearGradient3739"
       id="linearGradient4720"
       gradientUnits="userSpaceOnUse"
       gradientTransform="matrix(0.13397,0,0,0.05948322,-89.94913,-60.746436)"
       spreadMethod="reflect"
       x1="772.14001"
       y1="2977.3999"
       x2="831"
       y2="2977.3999" />
  </defs>
  <metadata
     id="metadata3316">
    <rdf:RDF>
      <cc:Work>
        <dc:format>image/svg+xml</dc:format>
        <dc:type
           rdf:resource="http://purl.org/dc/dcmitype/StillImage" />
        <cc:license
           rdf:resource="http://creativecommons.org/licenses/publicdomain/" />
        <dc:publisher>
          <cc:Agent
             rdf:about="http://openclipart.org/">
            <dc:title>Openclipart</dc:title>
          </cc:Agent>
        </dc:publisher>
        <dc:title>Bus stop</dc:title>
        <dc:date>2009-03-25T12:10:20</dc:date>
        <dc:description>Fictitious bus stop in style of UK (London) bus stops. Semi-trace from image</dc:description>
        <dc:source>http://openclipart.org/detail/23289/bus-stop-by-tom</dc:source>
        <dc:creator>
          <cc:Agent>
            <dc:title>tom</dc:title>
          </cc:Agent>
        </dc:creator>
        <dc:subject>
          <rdf:Bag>
            <rdf:li>bus</rdf:li>
            <rdf:li>bus stop</rdf:li>
            <rdf:li>city</rdf:li>
            <rdf:li>clip art</rdf:li>
            <rdf:li>clipart</rdf:li>
            <rdf:li>coach</rdf:li>
            <rdf:li>image</rdf:li>
            <rdf:li>london</rdf:li>
            <rdf:li>media</rdf:li>
            <rdf:li>png</rdf:li>
            <rdf:li>public domain</rdf:li>
            <rdf:li>public transport</rdf:li>
            <rdf:li>road</rdf:li>
            <rdf:li>sign</rdf:li>
            <rdf:li>street</rdf:li>
            <rdf:li>svg</rdf:li>
            <rdf:li>transport</rdf:li>
          </rdf:Bag>
        </dc:subject>
      </cc:Work>
      <cc:License
         rdf:about="http://creativecommons.org/licenses/publicdomain/">
        <cc:permits
           rdf:resource="http://creativecommons.org/ns#Reproduction" />
        <cc:permits
           rdf:resource="http://creativecommons.org/ns#Distribution" />
        <cc:permits
           rdf:resource="http://creativecommons.org/ns#DerivativeWorks" />
      </cc:License>
    </rdf:RDF>
  </metadata>
  <text
     xml:space="preserve"
     style="font-size:20px;font-style:normal;font-weight:normal;line-height:125%;letter-spacing:0px;word-spacing:0px;fill:#000000;fill-opacity:1;stroke:none;font-family:Sans"
     x="87.479042"
     y="-128.04642"
     id="text3542"
     sodipodi:linespacing="125%"><tspan
       sodipodi:role="line"
       id="tspan3544"
       x="87.479042"
       y="-128.04642" /></text>
  <g
     id="g4687"
     transform="translate(-2.0741121,-6.4728204)"
     inkscape:export-xdpi="37.08461"
     inkscape:export-ydpi="37.08461">
    <path
       id="rect3647"
       d="M 5.7443013,18.848067 H 21.24597 V 213.86977 H 5.7443013 V 18.848067 z"
       style="fill:url(#linearGradient4720)"
       inkscape:connector-curvature="0" />
    <path
       id="path3649"
       d="m 25.23747,12.63414 c 0,6.976231 -5.655351,12.631426 -12.631581,12.631426 -6.9762304,0 -12.63158099,-5.65535 -12.63158099,-12.631426 0,-6.9762298 5.65535059,-12.63158032 12.63158099,-12.63158032 6.97623,0 12.631581,5.65535052 12.631581,12.63158032 z"
       inkscape:connector-curvature="0"
       style="fill:#ff0000;fill-rule:evenodd" />
    <path
       style="fill:#d3d7cf"
       inkscape:connector-curvature="0"
       d="M 15.875059,26.600127 H 117.87848 V 276.66719 H 15.875059 V 26.600127 z"
       id="rect3653" />
    <path
       style="fill:#ffffff;fill-rule:evenodd"
       inkscape:connector-curvature="0"
       d="M 21.251454,28.112083 H 112.47419 V 93.511421 H 21.251454 V 28.112083 z"
       id="rect3655" />
    <g
       style="fill:#ff0000"
       transform="matrix(0.13397,0,0,0.13397,25.174643,-153.20183)"
       id="g3657">
      <path
         style="fill-rule:evenodd;filter:url(#filter5458)"
         inkscape:connector-curvature="0"
         d="m 528.57,1592.4 c 0,115.13 -93.44,208.57 -208.57,208.57 -115.13,0 -208.57,-93.44 -208.57,-208.57 0,-115.13 93.44,-208.57 208.57,-208.57 115.13,0 208.57,93.44 208.57,208.57 z m -74.286,1.4286 c 0,74.914 -60.8,135.71 -135.71,135.71 -74.914,0 -135.71,-60.8 -135.71,-135.71 0,-74.914 60.8,-135.71 135.71,-135.71 74.914,0 135.71,60.8 135.71,135.71 z"
         id="path3659" />
      <path
         style="filter:url(#filter5458)"
         inkscape:connector-curvature="0"
         d="m 28.571,1552.4 h 577.14 v 77.143 H 28.571 V 1552.4 z"
         id="rect3661" />
    </g>
    <path
       style="fill:#ff0000;fill-rule:evenodd"
       inkscape:connector-curvature="0"
       d="M 19.435364,93.048427 H 115.89376 V 108.35986 H 19.435364 V 93.048427 z"
       id="rect3663" />
    <path
       inkscape:connector-curvature="0"
       d="m 18.711933,177.19498 h 96.841557 v 96.84156 H 18.711933 v -96.84156 z"
       id="rect3671"
       style="fill:#ffffff;fill-rule:evenodd;stroke:#000000;stroke-width:0.80382001" />
    <path
       inkscape:connector-curvature="0"
       d="m 50.986649,177.19498 h 32.289449 v 96.84156 H 50.986649 v -96.84156 z m 64.580241,32.28008 v 32.28007 H 18.697199 v -32.28007 h 96.869691 z"
       id="path3673"
       style="fill:#ffffff;fill-rule:evenodd;stroke:#000000;stroke-width:0.80382001" />
    <g
       id="text3679"
       transform="matrix(1.240589,0,0,1.240589,17.200076,-427.33902)"
       style="fill:#eeeeec">
      <path
         id="path3752"
         d="m 10.379,430.36 v -8.5898 h 3.2227 c 0.65624,1e-5 1.1826,0.0869 1.5791,0.26074 0.39648,0.17384 0.70702,0.44142 0.93164,0.80274 0.2246,0.36133 0.33691,0.73926 0.33691,1.1338 -7e-6,0.3672 -0.09962,0.7129 -0.29883,1.0371 -0.19923,0.32423 -0.50001,0.58595 -0.90234,0.78516 0.51952,0.15235 0.91894,0.41211 1.1982,0.7793 0.27929,0.36719 0.41894,0.80078 0.41894,1.3008 -7e-6,0.40234 -0.08497,0.77637 -0.25488,1.1221 -0.16993,0.3457 -0.37989,0.6123 -0.62988,0.7998 -0.25001,0.1875 -0.56348,0.32911 -0.94043,0.42481 -0.37696,0.0957 -0.83887,0.14355 -1.3857,0.14355 z m 1.1367,-4.9805 h 1.8574 c 0.5039,10e-6 0.86523,-0.0332 1.084,-0.0996 0.28906,-0.0859 0.50683,-0.22851 0.65332,-0.42773 0.14648,-0.19921 0.21972,-0.44921 0.21973,-0.75 -6e-6,-0.28515 -0.06837,-0.53613 -0.20508,-0.75293 -0.13672,-0.21679 -0.33204,-0.36523 -0.58594,-0.44531 -0.25391,-0.0801 -0.68946,-0.12011 -1.3066,-0.12012 h -1.7168 z m 0,3.9668 h 2.1387 c 0.36718,0 0.625,-0.0137 0.77344,-0.041 0.26171,-0.0469 0.48046,-0.125 0.65625,-0.23438 0.17578,-0.10937 0.32031,-0.26855 0.43359,-0.47754 0.11328,-0.20898 0.16992,-0.45019 0.16992,-0.72363 -6e-6,-0.32031 -0.08204,-0.59863 -0.24609,-0.83496 -0.16407,-0.23633 -0.39161,-0.40234 -0.68262,-0.49805 -0.29102,-0.0957 -0.70996,-0.14355 -1.2568,-0.14355 h -1.9863 z"
         inkscape:connector-curvature="0" />
      <path
         id="path3754"
         d="m 24.078,421.77 h 1.1367 v 4.9629 c -8e-6,0.86328 -0.09766,1.5488 -0.29297,2.0566 -0.19532,0.50781 -0.54786,0.9209 -1.0576,1.2393 -0.50977,0.31836 -1.1787,0.47754 -2.0068,0.47754 -0.80469,0 -1.4629,-0.13867 -1.9746,-0.41602 -0.51172,-0.27734 -0.87695,-0.67871 -1.0957,-1.2041 -0.21875,-0.52539 -0.32813,-1.2432 -0.32812,-2.1533 v -4.9629 h 1.1367 v 4.957 c -2e-6,0.7461 0.06933,1.2959 0.20801,1.6494 0.13867,0.35352 0.37695,0.62598 0.71484,0.81739 0.33789,0.1914 0.75097,0.28711 1.2393,0.28711 0.83593,0 1.4316,-0.18946 1.7871,-0.56836 0.35546,-0.37891 0.5332,-1.1074 0.5332,-2.1856 z"
         inkscape:connector-curvature="0" />
      <path
         id="path3756"
         d="m 26.727,427.6 1.0723,-0.0937 c 0.05078,0.42969 0.16894,0.78223 0.35449,1.0576 0.18554,0.2754 0.47363,0.49805 0.86426,0.66797 0.39062,0.16993 0.83008,0.25489 1.3184,0.25489 0.43359,0 0.8164,-0.0645 1.1484,-0.19336 0.33203,-0.12891 0.5791,-0.30567 0.74121,-0.53028 0.1621,-0.2246 0.24316,-0.46972 0.24316,-0.73535 -6e-6,-0.26953 -0.07813,-0.50488 -0.23438,-0.70605 -0.15626,-0.20117 -0.41407,-0.37012 -0.77344,-0.50684 -0.23047,-0.0898 -0.74024,-0.22949 -1.5293,-0.41894 -0.78907,-0.18945 -1.3418,-0.36816 -1.6582,-0.53614 -0.41016,-0.21484 -0.71582,-0.48144 -0.91699,-0.7998 -0.20117,-0.31836 -0.30176,-0.6748 -0.30176,-1.0693 0,-0.43358 0.12305,-0.83886 0.36914,-1.2158 0.24609,-0.37694 0.60547,-0.66308 1.0781,-0.8584 0.47265,-0.1953 0.99804,-0.29296 1.5762,-0.29297 0.63671,10e-6 1.1982,0.10255 1.6846,0.30762 0.48632,0.20509 0.86034,0.50685 1.1221,0.90528 0.26171,0.39844 0.40234,0.84961 0.42188,1.3535 l -1.0898,0.082 c -0.0586,-0.54296 -0.25684,-0.95312 -0.59473,-1.2305 -0.3379,-0.27733 -0.83692,-0.416 -1.4971,-0.41601 -0.6875,10e-6 -1.1885,0.12598 -1.5029,0.37793 -0.31446,0.25196 -0.47168,0.55567 -0.47168,0.91113 -2e-6,0.3086 0.11133,0.56251 0.33398,0.76172 0.21875,0.19922 0.79004,0.40332 1.7139,0.6123 0.92382,0.20899 1.5576,0.39161 1.9014,0.54786 0.49999,0.23047 0.86913,0.52246 1.1074,0.87597 0.23827,0.35352 0.35742,0.76075 0.35742,1.2217 -7e-6,0.45703 -0.13087,0.8877 -0.39258,1.292 -0.26172,0.4043 -0.6377,0.71875 -1.1279,0.94336 -0.49024,0.22461 -1.042,0.33692 -1.6553,0.33692 -0.77735,0 -1.4287,-0.11328 -1.9541,-0.33985 -0.52539,-0.22656 -0.9375,-0.56738 -1.2363,-1.0225 -0.29883,-0.45507 -0.45606,-0.96972 -0.47168,-1.5439 z"
         inkscape:connector-curvature="0" />
      <path
         id="path3758"
         d="m 38.07,427.6 1.0723,-0.0937 c 0.05078,0.42969 0.16894,0.78223 0.35449,1.0576 0.18554,0.2754 0.47363,0.49805 0.86426,0.66797 0.39062,0.16993 0.83008,0.25489 1.3184,0.25489 0.43359,0 0.8164,-0.0645 1.1484,-0.19336 0.33203,-0.12891 0.5791,-0.30567 0.74121,-0.53028 0.1621,-0.2246 0.24316,-0.46972 0.24316,-0.73535 -6e-6,-0.26953 -0.07813,-0.50488 -0.23438,-0.70605 -0.15626,-0.20117 -0.41407,-0.37012 -0.77344,-0.50684 -0.23047,-0.0898 -0.74024,-0.22949 -1.5293,-0.41894 -0.78907,-0.18945 -1.3418,-0.36816 -1.6582,-0.53614 -0.41016,-0.21484 -0.71582,-0.48144 -0.91699,-0.7998 -0.20117,-0.31836 -0.30176,-0.6748 -0.30176,-1.0693 0,-0.43358 0.12305,-0.83886 0.36914,-1.2158 0.24609,-0.37694 0.60547,-0.66308 1.0781,-0.8584 0.47265,-0.1953 0.99804,-0.29296 1.5762,-0.29297 0.63671,10e-6 1.1982,0.10255 1.6846,0.30762 0.48632,0.20509 0.86034,0.50685 1.1221,0.90528 0.26171,0.39844 0.40234,0.84961 0.42188,1.3535 l -1.0898,0.082 c -0.0586,-0.54296 -0.25684,-0.95312 -0.59473,-1.2305 -0.3379,-0.27733 -0.83692,-0.416 -1.4971,-0.41601 -0.6875,10e-6 -1.1885,0.12598 -1.5029,0.37793 -0.31446,0.25196 -0.47168,0.55567 -0.47168,0.91113 -2e-6,0.3086 0.11133,0.56251 0.33398,0.76172 0.21875,0.19922 0.79004,0.40332 1.7139,0.6123 0.92382,0.20899 1.5576,0.39161 1.9014,0.54786 0.49999,0.23047 0.86913,0.52246 1.1074,0.87597 0.23827,0.35352 0.35742,0.76075 0.35742,1.2217 -7e-6,0.45703 -0.13087,0.8877 -0.39258,1.292 -0.26172,0.4043 -0.6377,0.71875 -1.1279,0.94336 -0.49024,0.22461 -1.042,0.33692 -1.6553,0.33692 -0.77735,0 -1.4287,-0.11328 -1.9541,-0.33985 -0.52539,-0.22656 -0.9375,-0.56738 -1.2363,-1.0225 -0.29883,-0.45507 -0.45606,-0.96972 -0.47168,-1.5439 z"
         inkscape:connector-curvature="0" />
      <path
         id="path3760"
         d="m 48.658,430.36 v -7.5762 h -2.8301 v -1.0137 h 6.8086 v 1.0137 h -2.8418 v 7.5762 z"
         inkscape:connector-curvature="0" />
      <path
         id="path3762"
         d="m 53.463,426.18 c -10e-7,-1.4258 0.38281,-2.542 1.1484,-3.3486 0.76562,-0.80664 1.7539,-1.21 2.9648,-1.21 0.79296,0 1.5078,0.18946 2.1445,0.56835 0.63671,0.37892 1.1221,0.90724 1.4561,1.585 0.33398,0.67774 0.50097,1.4463 0.50098,2.3057 -8e-6,0.8711 -0.17579,1.6504 -0.52734,2.3379 -0.35157,0.6875 -0.84962,1.208 -1.4941,1.5615 -0.64454,0.35352 -1.3398,0.53028 -2.0859,0.53028 -0.8086,0 -1.5313,-0.19532 -2.168,-0.58594 -0.63672,-0.39062 -1.1191,-0.92383 -1.4473,-1.5996 -0.32813,-0.67578 -0.49219,-1.3906 -0.49219,-2.1445 z m 1.1719,0.0176 c -2e-6,1.0352 0.27832,1.8506 0.83496,2.4463 0.55664,0.5957 1.2549,0.89355 2.0947,0.89355 0.85546,0 1.5596,-0.30078 2.1123,-0.90234 0.55273,-0.60156 0.82909,-1.4551 0.8291,-2.5606 -7e-6,-0.69921 -0.11817,-1.3096 -0.35449,-1.831 -0.23634,-0.52148 -0.58204,-0.92578 -1.0371,-1.2129 -0.45508,-0.2871 -0.96583,-0.43065 -1.5322,-0.43066 -0.80469,1e-5 -1.4971,0.27638 -2.0771,0.8291 -0.58008,0.55274 -0.87012,1.4756 -0.87012,2.7686 z"
         inkscape:connector-curvature="0" />
      <path
         id="path3764"
         d="m 63.137,430.36 v -8.5898 h 3.2402 c 0.57031,1e-5 1.0059,0.0274 1.3066,0.082 0.42187,0.0703 0.77538,0.20411 1.0605,0.40137 0.28515,0.19727 0.51464,0.47364 0.68848,0.8291 0.17382,0.35547 0.26074,0.7461 0.26074,1.1719 -7e-6,0.73048 -0.23243,1.3486 -0.69726,1.8545 -0.46485,0.50586 -1.3047,0.75879 -2.5195,0.75879 h -2.2031 v 3.4922 z m 1.1367,-4.5059 h 2.2207 c 0.73437,10e-6 1.2559,-0.13671 1.5645,-0.41015 0.30859,-0.27344 0.46288,-0.6582 0.46289,-1.1543 -6e-6,-0.35937 -0.09083,-0.66699 -0.27246,-0.92285 -0.18165,-0.25585 -0.4209,-0.4248 -0.71777,-0.50684 -0.19141,-0.0508 -0.54493,-0.0762 -1.0605,-0.0762 h -2.1973 z"
         inkscape:connector-curvature="0" />
    </g>
    <g
       id="g4666">
      <path
         id="rect3665"
         d="m 19.05355,109.88846 h 97.22337 v 30.62152 H 19.05355 v -30.62152 z"
         inkscape:connector-curvature="0"
         style="fill:#808080;fill-rule:evenodd" />
      <text
         xml:space="preserve"
         style="font-size:20px;font-style:normal;font-weight:normal;line-height:125%;letter-spacing:0px;word-spacing:0px;fill:#ffffff;fill-opacity:1;stroke:none;font-family:Sans"
         x="47.523632"
         y="132.33789"
         id="text3872"
         sodipodi:linespacing="125%"><tspan
           sodipodi:role="line"
           id="tspan3874"
           x="47.523632"
           y="132.33789">KML</tspan></text>
    </g>
    <g
       id="g4671">
      <path
         style="fill:#ffffff;fill-rule:evenodd;stroke:#000000;stroke-width:0.80382001"
         inkscape:connector-curvature="0"
         d="m 115.93623,142.33599 0,32.53595 -97.606519,0 0,-32.53595 97.606519,0 z"
         id="rect3677" />
      <text
         xml:space="preserve"
         style="font-size:20px;font-style:normal;font-weight:normal;line-height:125%;letter-spacing:0px;word-spacing:0px;fill:#000000;fill-opacity:1;stroke:none;font-family:Sans"
         x="67.308754"
         y="155.60396"
         id="text4656"
         sodipodi:linespacing="125%"><tspan
           sodipodi:role="line"
           id="tspan4658"
           x="67.308754"
           y="155.60396"
           style="font-size:12px;text-align:center;text-anchor:middle">towards</tspan><tspan
           sodipodi:role="line"
           x="67.308754"
           y="170.60396"
           id="tspan4660"
           style="font-size:12px;text-align:center;text-anchor:middle">Home</tspan></text>
    </g>
    <text
       sodipodi:linespacing="125%"
       id="text4679"
       y="198.04285"
       x="23.084749"
       style="font-size:14px;font-style:normal;font-weight:normal;line-height:125%;letter-spacing:0px;word-spacing:0px;fill:#000000;fill-opacity:1;stroke:none;font-family:Sans"
       xml:space="preserve"><tspan
         y="198.04285"
         x="23.084749"
         id="tspan4681"
         sodipodi:role="line">371</tspan></text>
    <text
       xml:space="preserve"
       style="font-size:14px;font-style:normal;font-weight:normal;line-height:125%;letter-spacing:0px;word-spacing:0px;fill:#000000;fill-opacity:1;stroke:none;font-family:Sans"
       x="59.084751"
       y="198.04285"
       id="text4683"
       sodipodi:linespacing="125%"><tspan
         sodipodi:role="line"
         id="tspan4685"
         x="59.084751"
         y="198.04285">65</tspan></text>
  </g>
</svg>
