<?xml version="1.0" encoding="UTF-8" standalone="no"?>
<svg
   xmlns:dc="http://purl.org/dc/elements/1.1/"
   xmlns:cc="http://creativecommons.org/ns#"
   xmlns:rdf="http://www.w3.org/1999/02/22-rdf-syntax-ns#"
   xmlns:svg="http://www.w3.org/2000/svg"
   xmlns="http://www.w3.org/2000/svg"
   xmlns:xlink="http://www.w3.org/1999/xlink"
   xmlns:sodipodi="http://sodipodi.sourceforge.net/DTD/sodipodi-0.dtd"
   xmlns:inkscape="http://www.inkscape.org/namespaces/inkscape"
   id="svg4133"
   viewBox="0 0 117.89 458.05"
   version="1.0"
   inkscape:version="0.48.3.1 r9886"
   width="100%"
   height="100%"
   sodipodi:docname="Bus_stop.svg">
  <sodipodi:namedview
     pagecolor="#ffffff"
     bordercolor="#666666"
     borderopacity="1"
     objecttolerance="10"
     gridtolerance="10"
     guidetolerance="10"
     inkscape:pageopacity="0"
     inkscape:pageshadow="2"
     inkscape:window-width="1024"
     inkscape:window-height="541"
     id="namedview3318"
     showgrid="false"
     inkscape:zoom="1.6461085"
     inkscape:cx="58.945"
     inkscape:cy="204.72527"
     inkscape:window-x="0"
     inkscape:window-y="27"
     inkscape:window-maximized="1"
     inkscape:current-layer="svg4133" />
  <title
     id="title4370">Bus stop</title>
  <defs
     id="defs4135">
    <linearGradient
       id="linearGradient3739"
       x1="772.14"
       spreadMethod="reflect"
       gradientUnits="userSpaceOnUse"
       y1="2977.4"
       x2="831"
       y2="2977.4">
      <stop
         id="stop1886"
         offset="0" />
      <stop
         id="stop1888"
         stop-opacity="0"
         offset="1" />
    </linearGradient>
    <filter
       id="filter5458">
      <feGaussianBlur
         id="feGaussianBlur5460"
         stdDeviation="1" />
    </filter>
    <linearGradient
       inkscape:collect="always"
       xlink:href="#linearGradient3739"
       id="linearGradient3650"
       gradientUnits="userSpaceOnUse"
       spreadMethod="reflect"
       x1="772.14"
       y1="2977.4"
       x2="831"
       y2="2977.4" />
    <linearGradient
       inkscape:collect="always"
       xlink:href="#linearGradient3739"
       id="linearGradient3753"
       gradientUnits="userSpaceOnUse"
       spreadMethod="reflect"
       x1="772.14"
       y1="2977.4"
       x2="831"
       y2="2977.4" />
    <linearGradient
       inkscape:collect="always"
       xlink:href="#linearGradient3739"
       id="linearGradient3855"
       gradientUnits="userSpaceOnUse"
       spreadMethod="reflect"
       x1="772.14"
       y1="2977.4"
       x2="831"
       y2="2977.4"
       gradientTransform="matrix(0.13397,0,0,0.13397,-89.94913,-160.41719)" />
  </defs>
  <path
     inkscape:connector-curvature="0"
     style="fill:url(#linearGradient3855)"
     d="M 5.7443013,18.848067 H 21.24597 V 458.08211 H 5.7443013 V 18.848067 z"
     id="rect3647" />
  <path
     style="fill:#ff0000;fill-rule:evenodd"
     inkscape:connector-curvature="0"
     d="m 25.23747,12.63414 c 0,6.976231 -5.655351,12.631426 -12.631581,12.631426 -6.9762304,0 -12.63158099,-5.65535 -12.63158099,-12.631426 0,-6.9762298 5.65535059,-12.63158032 12.63158099,-12.63158032 6.97623,0 12.631581,5.65535052 12.631581,12.63158032 z"
     id="path3649" />
  <g
     transform="matrix(0.13397,0,0,0.13397,324.61099,-152.13007)"
     id="g3651">
    <path
       style="fill:#d3d7cf"
       inkscape:connector-curvature="0"
       d="m 114,252.36 h 100 v 284 H 114 v -284 z"
       transform="matrix(7.6139,0,0,6.5725,-3172.5,-324.53)"
       id="rect3653" />
    <path
       style="fill:#ffffff;fill-rule:evenodd"
       inkscape:connector-curvature="0"
       d="m -752.85,1343.8 h 725.71 v 514.29 H -752.85 V 1343.8 z"
       transform="matrix(0.93828,0,0,0.9492,-1558,69.857)"
       id="rect3655" />
    <g
       style="fill:#ff0000"
       transform="translate(-2235.1,-8)"
       id="g3657">
      <path
         style="fill-rule:evenodd;filter:url(#filter5458)"
         inkscape:connector-curvature="0"
         d="m 528.57,1592.4 c 0,115.13 -93.44,208.57 -208.57,208.57 -115.13,0 -208.57,-93.44 -208.57,-208.57 0,-115.13 93.44,-208.57 208.57,-208.57 115.13,0 208.57,93.44 208.57,208.57 z m -74.286,1.4286 c 0,74.914 -60.8,135.71 -135.71,135.71 -74.914,0 -135.71,-60.8 -135.71,-135.71 0,-74.914 60.8,-135.71 135.71,-135.71 74.914,0 135.71,60.8 135.71,135.71 z"
         id="path3659" />
      <path
         style="filter:url(#filter5458)"
         inkscape:connector-curvature="0"
         d="m 28.571,1552.4 h 577.14 v 77.143 H 28.571 V 1552.4 z"
         id="rect3661" />
    </g>
    <path
       style="fill:#ff0000;fill-rule:evenodd"
       inkscape:connector-curvature="0"
       d="m -747.14,1838.1 h 720 v 114.29 h -720 V 1838.1 z"
       transform="translate(-1530.8,-8)"
       id="rect3663" />
    <path
       style="fill:#808080;fill-rule:evenodd"
       inkscape:connector-curvature="0"
       d="m -749.99,1963.8 h 725.71 v 228.57 H -749.99 V 1963.8 z"
       transform="translate(-1530.8,-8)"
       id="rect3665" />
    <g
       style="fill:#ffffff;fill-rule:evenodd;stroke:#000000;stroke-width:6"
       transform="translate(-645.96,82)"
       id="g3667">
      <g
         transform="translate(-1648,-32)"
         id="g3669">
        <path
           inkscape:connector-curvature="0"
           d="m -791.43,2440.2 h 722.86 v 722.86 H -791.43 V 2440.2 z"
           transform="translate(802.05,-32)"
           id="rect3671" />
        <path
           inkscape:connector-curvature="0"
           d="m -550.62,2440.2 h 241.02 v 722.86 H -550.62 V 2440.2 z m 482.05,240.95 v 240.95 h -723.07 v -240.95 h 723.07 z"
           transform="translate(802.15,-32)"
           id="path3673" />
      </g>
      <path
         inkscape:connector-curvature="0"
         d="m 3164,68.543 h 242.86 v 728.57 H 3164 V 68.543 z"
         transform="matrix(0,1,-1,0,-843.12,-1048)"
         id="rect3677" />
    </g>
  </g>
  <g
     style="fill:#eeeeec"
     transform="matrix(1.240589,0,0,1.240589,17.200076,-427.33902)"
     id="text3679">
    <path
       inkscape:connector-curvature="0"
       d="m 10.379,430.36 v -8.5898 h 3.2227 c 0.65624,1e-5 1.1826,0.0869 1.5791,0.26074 0.39648,0.17384 0.70702,0.44142 0.93164,0.80274 0.2246,0.36133 0.33691,0.73926 0.33691,1.1338 -7e-6,0.3672 -0.09962,0.7129 -0.29883,1.0371 -0.19923,0.32423 -0.50001,0.58595 -0.90234,0.78516 0.51952,0.15235 0.91894,0.41211 1.1982,0.7793 0.27929,0.36719 0.41894,0.80078 0.41894,1.3008 -7e-6,0.40234 -0.08497,0.77637 -0.25488,1.1221 -0.16993,0.3457 -0.37989,0.6123 -0.62988,0.7998 -0.25001,0.1875 -0.56348,0.32911 -0.94043,0.42481 -0.37696,0.0957 -0.83887,0.14355 -1.3857,0.14355 z m 1.1367,-4.9805 h 1.8574 c 0.5039,10e-6 0.86523,-0.0332 1.084,-0.0996 0.28906,-0.0859 0.50683,-0.22851 0.65332,-0.42773 0.14648,-0.19921 0.21972,-0.44921 0.21973,-0.75 -6e-6,-0.28515 -0.06837,-0.53613 -0.20508,-0.75293 -0.13672,-0.21679 -0.33204,-0.36523 -0.58594,-0.44531 -0.25391,-0.0801 -0.68946,-0.12011 -1.3066,-0.12012 h -1.7168 z m 0,3.9668 h 2.1387 c 0.36718,0 0.625,-0.0137 0.77344,-0.041 0.26171,-0.0469 0.48046,-0.125 0.65625,-0.23438 0.17578,-0.10937 0.32031,-0.26855 0.43359,-0.47754 0.11328,-0.20898 0.16992,-0.45019 0.16992,-0.72363 -6e-6,-0.32031 -0.08204,-0.59863 -0.24609,-0.83496 -0.16407,-0.23633 -0.39161,-0.40234 -0.68262,-0.49805 -0.29102,-0.0957 -0.70996,-0.14355 -1.2568,-0.14355 h -1.9863 z"
       id="path3752" />
    <path
       inkscape:connector-curvature="0"
       d="m 24.078,421.77 h 1.1367 v 4.9629 c -8e-6,0.86328 -0.09766,1.5488 -0.29297,2.0566 -0.19532,0.50781 -0.54786,0.9209 -1.0576,1.2393 -0.50977,0.31836 -1.1787,0.47754 -2.0068,0.47754 -0.80469,0 -1.4629,-0.13867 -1.9746,-0.41602 -0.51172,-0.27734 -0.87695,-0.67871 -1.0957,-1.2041 -0.21875,-0.52539 -0.32813,-1.2432 -0.32812,-2.1533 v -4.9629 h 1.1367 v 4.957 c -2e-6,0.7461 0.06933,1.2959 0.20801,1.6494 0.13867,0.35352 0.37695,0.62598 0.71484,0.81739 0.33789,0.1914 0.75097,0.28711 1.2393,0.28711 0.83593,0 1.4316,-0.18946 1.7871,-0.56836 0.35546,-0.37891 0.5332,-1.1074 0.5332,-2.1856 z"
       id="path3754" />
    <path
       inkscape:connector-curvature="0"
       d="m 26.727,427.6 1.0723,-0.0937 c 0.05078,0.42969 0.16894,0.78223 0.35449,1.0576 0.18554,0.2754 0.47363,0.49805 0.86426,0.66797 0.39062,0.16993 0.83008,0.25489 1.3184,0.25489 0.43359,0 0.8164,-0.0645 1.1484,-0.19336 0.33203,-0.12891 0.5791,-0.30567 0.74121,-0.53028 0.1621,-0.2246 0.24316,-0.46972 0.24316,-0.73535 -6e-6,-0.26953 -0.07813,-0.50488 -0.23438,-0.70605 -0.15626,-0.20117 -0.41407,-0.37012 -0.77344,-0.50684 -0.23047,-0.0898 -0.74024,-0.22949 -1.5293,-0.41894 -0.78907,-0.18945 -1.3418,-0.36816 -1.6582,-0.53614 -0.41016,-0.21484 -0.71582,-0.48144 -0.91699,-0.7998 -0.20117,-0.31836 -0.30176,-0.6748 -0.30176,-1.0693 0,-0.43358 0.12305,-0.83886 0.36914,-1.2158 0.24609,-0.37694 0.60547,-0.66308 1.0781,-0.8584 0.47265,-0.1953 0.99804,-0.29296 1.5762,-0.29297 0.63671,10e-6 1.1982,0.10255 1.6846,0.30762 0.48632,0.20509 0.86034,0.50685 1.1221,0.90528 0.26171,0.39844 0.40234,0.84961 0.42188,1.3535 l -1.0898,0.082 c -0.0586,-0.54296 -0.25684,-0.95312 -0.59473,-1.2305 -0.3379,-0.27733 -0.83692,-0.416 -1.4971,-0.41601 -0.6875,10e-6 -1.1885,0.12598 -1.5029,0.37793 -0.31446,0.25196 -0.47168,0.55567 -0.47168,0.91113 -2e-6,0.3086 0.11133,0.56251 0.33398,0.76172 0.21875,0.19922 0.79004,0.40332 1.7139,0.6123 0.92382,0.20899 1.5576,0.39161 1.9014,0.54786 0.49999,0.23047 0.86913,0.52246 1.1074,0.87597 0.23827,0.35352 0.35742,0.76075 0.35742,1.2217 -7e-6,0.45703 -0.13087,0.8877 -0.39258,1.292 -0.26172,0.4043 -0.6377,0.71875 -1.1279,0.94336 -0.49024,0.22461 -1.042,0.33692 -1.6553,0.33692 -0.77735,0 -1.4287,-0.11328 -1.9541,-0.33985 -0.52539,-0.22656 -0.9375,-0.56738 -1.2363,-1.0225 -0.29883,-0.45507 -0.45606,-0.96972 -0.47168,-1.5439 z"
       id="path3756" />
    <path
       inkscape:connector-curvature="0"
       d="m 38.07,427.6 1.0723,-0.0937 c 0.05078,0.42969 0.16894,0.78223 0.35449,1.0576 0.18554,0.2754 0.47363,0.49805 0.86426,0.66797 0.39062,0.16993 0.83008,0.25489 1.3184,0.25489 0.43359,0 0.8164,-0.0645 1.1484,-0.19336 0.33203,-0.12891 0.5791,-0.30567 0.74121,-0.53028 0.1621,-0.2246 0.24316,-0.46972 0.24316,-0.73535 -6e-6,-0.26953 -0.07813,-0.50488 -0.23438,-0.70605 -0.15626,-0.20117 -0.41407,-0.37012 -0.77344,-0.50684 -0.23047,-0.0898 -0.74024,-0.22949 -1.5293,-0.41894 -0.78907,-0.18945 -1.3418,-0.36816 -1.6582,-0.53614 -0.41016,-0.21484 -0.71582,-0.48144 -0.91699,-0.7998 -0.20117,-0.31836 -0.30176,-0.6748 -0.30176,-1.0693 0,-0.43358 0.12305,-0.83886 0.36914,-1.2158 0.24609,-0.37694 0.60547,-0.66308 1.0781,-0.8584 0.47265,-0.1953 0.99804,-0.29296 1.5762,-0.29297 0.63671,10e-6 1.1982,0.10255 1.6846,0.30762 0.48632,0.20509 0.86034,0.50685 1.1221,0.90528 0.26171,0.39844 0.40234,0.84961 0.42188,1.3535 l -1.0898,0.082 c -0.0586,-0.54296 -0.25684,-0.95312 -0.59473,-1.2305 -0.3379,-0.27733 -0.83692,-0.416 -1.4971,-0.41601 -0.6875,10e-6 -1.1885,0.12598 -1.5029,0.37793 -0.31446,0.25196 -0.47168,0.55567 -0.47168,0.91113 -2e-6,0.3086 0.11133,0.56251 0.33398,0.76172 0.21875,0.19922 0.79004,0.40332 1.7139,0.6123 0.92382,0.20899 1.5576,0.39161 1.9014,0.54786 0.49999,0.23047 0.86913,0.52246 1.1074,0.87597 0.23827,0.35352 0.35742,0.76075 0.35742,1.2217 -7e-6,0.45703 -0.13087,0.8877 -0.39258,1.292 -0.26172,0.4043 -0.6377,0.71875 -1.1279,0.94336 -0.49024,0.22461 -1.042,0.33692 -1.6553,0.33692 -0.77735,0 -1.4287,-0.11328 -1.9541,-0.33985 -0.52539,-0.22656 -0.9375,-0.56738 -1.2363,-1.0225 -0.29883,-0.45507 -0.45606,-0.96972 -0.47168,-1.5439 z"
       id="path3758" />
    <path
       inkscape:connector-curvature="0"
       d="m 48.658,430.36 v -7.5762 h -2.8301 v -1.0137 h 6.8086 v 1.0137 h -2.8418 v 7.5762 z"
       id="path3760" />
    <path
       inkscape:connector-curvature="0"
       d="m 53.463,426.18 c -10e-7,-1.4258 0.38281,-2.542 1.1484,-3.3486 0.76562,-0.80664 1.7539,-1.21 2.9648,-1.21 0.79296,0 1.5078,0.18946 2.1445,0.56835 0.63671,0.37892 1.1221,0.90724 1.4561,1.585 0.33398,0.67774 0.50097,1.4463 0.50098,2.3057 -8e-6,0.8711 -0.17579,1.6504 -0.52734,2.3379 -0.35157,0.6875 -0.84962,1.208 -1.4941,1.5615 -0.64454,0.35352 -1.3398,0.53028 -2.0859,0.53028 -0.8086,0 -1.5313,-0.19532 -2.168,-0.58594 -0.63672,-0.39062 -1.1191,-0.92383 -1.4473,-1.5996 -0.32813,-0.67578 -0.49219,-1.3906 -0.49219,-2.1445 z m 1.1719,0.0176 c -2e-6,1.0352 0.27832,1.8506 0.83496,2.4463 0.55664,0.5957 1.2549,0.89355 2.0947,0.89355 0.85546,0 1.5596,-0.30078 2.1123,-0.90234 0.55273,-0.60156 0.82909,-1.4551 0.8291,-2.5606 -7e-6,-0.69921 -0.11817,-1.3096 -0.35449,-1.831 -0.23634,-0.52148 -0.58204,-0.92578 -1.0371,-1.2129 -0.45508,-0.2871 -0.96583,-0.43065 -1.5322,-0.43066 -0.80469,1e-5 -1.4971,0.27638 -2.0771,0.8291 -0.58008,0.55274 -0.87012,1.4756 -0.87012,2.7686 z"
       id="path3762" />
    <path
       inkscape:connector-curvature="0"
       d="m 63.137,430.36 v -8.5898 h 3.2402 c 0.57031,1e-5 1.0059,0.0274 1.3066,0.082 0.42187,0.0703 0.77538,0.20411 1.0605,0.40137 0.28515,0.19727 0.51464,0.47364 0.68848,0.8291 0.17382,0.35547 0.26074,0.7461 0.26074,1.1719 -7e-6,0.73048 -0.23243,1.3486 -0.69726,1.8545 -0.46485,0.50586 -1.3047,0.75879 -2.5195,0.75879 h -2.2031 v 3.4922 z m 1.1367,-4.5059 h 2.2207 c 0.73437,10e-6 1.2559,-0.13671 1.5645,-0.41015 0.30859,-0.27344 0.46288,-0.6582 0.46289,-1.1543 -6e-6,-0.35937 -0.09083,-0.66699 -0.27246,-0.92285 -0.18165,-0.25585 -0.4209,-0.4248 -0.71777,-0.50684 -0.19141,-0.0508 -0.54493,-0.0762 -1.0605,-0.0762 h -2.1973 z"
       id="path3764" />
  </g>
  <g
     style="fill:#eeeeec"
     transform="matrix(1.0000325,0,0,1.0000325,-42.510353,-235.76862)"
     id="text3683">
    <path
       inkscape:connector-curvature="0"
       d="m 94.02,356.86 v -8.5898 h 1.1367 v 7.5762 h 4.2305 v 1.0137 z"
       id="path3767" />
    <path
       inkscape:connector-curvature="0"
       d="m 100.22,353.75 c 0,-1.1523 0.32031,-2.0058 0.96094,-2.5605 0.53515,-0.46093 1.1875,-0.6914 1.957,-0.69141 0.85546,1e-5 1.5547,0.28028 2.0977,0.84082 0.54296,0.56055 0.81444,1.335 0.81445,2.3232 -1e-5,0.80079 -0.12013,1.4307 -0.36035,1.8896 -0.24024,0.45899 -0.58985,0.81543 -1.0488,1.0693 -0.45899,0.2539 -0.95997,0.38086 -1.5029,0.38086 -0.8711,0 -1.5752,-0.2793 -2.1123,-0.83789 -0.53711,-0.5586 -0.80566,-1.3633 -0.80566,-2.4141 z m 1.084,0 c 0,0.79688 0.17383,1.3936 0.52149,1.79 0.34765,0.39649 0.78515,0.59473 1.3125,0.59473 0.52343,0 0.95898,-0.19922 1.3066,-0.59766 0.34765,-0.39843 0.52148,-1.0058 0.52148,-1.8223 0,-0.76953 -0.17481,-1.3525 -0.52441,-1.749 -0.34961,-0.39647 -0.78418,-0.59472 -1.3037,-0.59472 -0.52735,0 -0.96485,0.19727 -1.3125,0.5918 -0.34766,0.39453 -0.52149,0.99023 -0.52149,1.7871 z"
       id="path3769" />
    <path
       inkscape:connector-curvature="0"
       d="m 108.44,356.86 -1.9043,-6.2226 h 1.0898 l 0.99023,3.5918 0.36915,1.3359 c 0.0156,-0.0664 0.12304,-0.49414 0.32226,-1.2832 l 0.99024,-3.6445 h 1.084 l 0.93164,3.6094 0.31055,1.1894 0.35742,-1.2012 1.0664,-3.5976 h 1.0254 l -1.9453,6.2226 h -1.0957 l -0.99023,-3.7266 -0.24024,-1.0606 -1.2598,4.7871 z"
       id="path3771" />
    <path
       inkscape:connector-curvature="0"
       d="m 120.22,354.86 1.0898,0.13476 c -0.17188,0.63672 -0.49024,1.1309 -0.95508,1.4824 -0.46485,0.35157 -1.0586,0.52735 -1.7812,0.52735 -0.91016,0 -1.6318,-0.28028 -2.165,-0.84082 -0.5332,-0.56055 -0.7998,-1.3467 -0.7998,-2.3584 0,-1.0469 0.26953,-1.8594 0.80859,-2.4375 0.53906,-0.57812 1.2383,-0.86718 2.0977,-0.86719 0.83203,10e-6 1.5117,0.28321 2.0391,0.84961 0.52734,0.56641 0.79101,1.3633 0.79102,2.3906 -1e-5,0.0625 -0.002,0.15625 -0.006,0.28125 h -4.6406 c 0.0391,0.68359 0.23242,1.207 0.58008,1.5703 0.34765,0.36328 0.78125,0.54492 1.3008,0.54492 0.38672,0 0.71679,-0.10156 0.99024,-0.30469 0.27343,-0.20312 0.49023,-0.52734 0.65039,-0.97265 z m -3.4629,-1.7051 h 3.4746 c -0.0469,-0.52344 -0.1797,-0.91601 -0.39844,-1.1777 -0.33594,-0.40624 -0.77149,-0.60937 -1.3066,-0.60937 -0.48438,0 -0.89161,0.16211 -1.2217,0.48633 -0.33008,0.32422 -0.5127,0.75781 -0.54785,1.3008 z"
       id="path3773" />
    <path
       inkscape:connector-curvature="0"
       d="m 122.63,356.86 v -6.2226 h 0.94922 v 0.94336 c 0.24218,-0.4414 0.46582,-0.73242 0.6709,-0.87305 0.20507,-0.14062 0.43066,-0.21093 0.67675,-0.21094 0.35547,10e-6 0.7168,0.11329 1.084,0.33985 l -0.36328,0.97851 c -0.25782,-0.15234 -0.51563,-0.22851 -0.77344,-0.22851 -0.23047,0 -0.4375,0.0693 -0.62109,0.208 -0.1836,0.13868 -0.31446,0.33106 -0.39258,0.57715 -0.11719,0.37501 -0.17578,0.78516 -0.17578,1.2305 v 3.2578 z"
       id="path3775" />
    <path
       inkscape:connector-curvature="0"
       d="m 78.398,368.49 v -1.0078 l 3.6387,-0.006 v 3.1875 c -0.5586,0.44531 -1.1348,0.78027 -1.7285,1.0049 -0.59376,0.22461 -1.2031,0.33692 -1.8281,0.33692 -0.84375,0 -1.6104,-0.18067 -2.2998,-0.542 -0.68946,-0.36132 -1.21,-0.88378 -1.5615,-1.5674 -0.35156,-0.68359 -0.52734,-1.4473 -0.52734,-2.291 -10e-7,-0.83594 0.1748,-1.6162 0.52441,-2.3408 0.34961,-0.72461 0.85254,-1.2627 1.5088,-1.6143 0.65625,-0.35156 1.4121,-0.52734 2.2676,-0.52735 0.62109,10e-6 1.1826,0.1006 1.6846,0.30176 0.50195,0.20118 0.8955,0.48146 1.1807,0.84082 0.28515,0.35938 0.50194,0.82813 0.65039,1.4062 l -1.0254,0.28125 c -0.12891,-0.43749 -0.28907,-0.78124 -0.48047,-1.0312 -0.19141,-0.24999 -0.46485,-0.45019 -0.82031,-0.60058 -0.35547,-0.15039 -0.75,-0.22558 -1.1836,-0.22559 -0.51954,1e-5 -0.96875,0.0791 -1.3477,0.23731 -0.37891,0.15821 -0.68457,0.36621 -0.91699,0.62402 -0.23242,0.25782 -0.41309,0.54102 -0.54199,0.84961 -0.21875,0.53125 -0.32813,1.1074 -0.32812,1.7285 -2e-6,0.76563 0.13183,1.4063 0.39551,1.9219 0.26367,0.51563 0.64746,0.89844 1.1514,1.1484 0.5039,0.25 1.0391,0.375 1.6055,0.375 0.49218,0 0.97265,-0.0947 1.4414,-0.28418 0.46874,-0.18946 0.82421,-0.3916 1.0664,-0.60645 v -1.5996 z"
       id="path3777" />
    <path
       inkscape:connector-curvature="0"
       d="m 87.633,371.09 c -0.39063,0.33204 -0.7666,0.56641 -1.1279,0.70313 -0.36133,0.13672 -0.74903,0.20508 -1.1631,0.20508 -0.6836,0 -1.209,-0.16699 -1.5762,-0.50098 -0.36719,-0.33398 -0.55078,-0.76074 -0.55078,-1.2803 -10e-7,-0.30469 0.06933,-0.58301 0.20801,-0.83496 0.13867,-0.25195 0.32031,-0.4541 0.54492,-0.60645 0.22461,-0.15234 0.47754,-0.26757 0.75879,-0.3457 0.20703,-0.0547 0.51953,-0.10742 0.9375,-0.1582 0.85156,-0.10156 1.4785,-0.22266 1.8809,-0.36329 0.0039,-0.14452 0.0059,-0.23632 0.0059,-0.27539 -5e-6,-0.42968 -0.09961,-0.73241 -0.29883,-0.9082 -0.26954,-0.23828 -0.66993,-0.35742 -1.2012,-0.35742 -0.4961,0 -0.86231,0.0869 -1.0986,0.26074 -0.23633,0.17383 -0.41113,0.48145 -0.52441,0.92285 l -1.0312,-0.14062 c 0.09375,-0.4414 0.24805,-0.79785 0.46289,-1.0693 0.21484,-0.27148 0.52539,-0.48046 0.93164,-0.62695 0.40625,-0.14648 0.87695,-0.21972 1.4121,-0.21973 0.53125,1e-5 0.96289,0.0625 1.2949,0.1875 0.33203,0.12501 0.57617,0.28223 0.73242,0.47168 0.15624,0.18946 0.26562,0.42872 0.32812,0.71777 0.03515,0.1797 0.05273,0.50392 0.05273,0.97266 v 1.4062 c -6e-6,0.98047 0.02245,1.6006 0.06738,1.8604 0.04492,0.25977 0.13378,0.50879 0.2666,0.74707 h -1.1016 c -0.10938,-0.21875 -0.17969,-0.47461 -0.21094,-0.76758 z m -0.08789,-2.3555 c -0.38282,0.15625 -0.95704,0.28906 -1.7227,0.39843 -0.4336,0.0625 -0.74024,0.13282 -0.91992,0.21094 -0.17969,0.0781 -0.31836,0.19239 -0.41602,0.34277 -0.09766,0.1504 -0.14649,0.31739 -0.14648,0.50098 -2e-6,0.28125 0.10644,0.51563 0.31934,0.70313 0.21289,0.1875 0.52441,0.28125 0.93457,0.28125 0.40625,0 0.76758,-0.0889 1.084,-0.26661 0.3164,-0.17773 0.54882,-0.42089 0.69727,-0.72949 0.11328,-0.23828 0.16992,-0.58984 0.16992,-1.0547 z"
       id="path3779" />
    <path
       inkscape:connector-curvature="0"
       d="m 90.24,371.86 v -6.2226 h 0.94922 v 0.94336 c 0.24219,-0.4414 0.46582,-0.73242 0.6709,-0.87305 0.20508,-0.14062 0.43066,-0.21093 0.67676,-0.21094 0.35547,10e-6 0.71679,0.11329 1.084,0.33985 l -0.36328,0.97851 c -0.25782,-0.15234 -0.51563,-0.22851 -0.77344,-0.22851 -0.23047,0 -0.4375,0.0693 -0.62109,0.208 -0.1836,0.13868 -0.31446,0.33106 -0.39258,0.57715 -0.11719,0.37501 -0.17578,0.78516 -0.17578,1.2305 v 3.2578 z"
       id="path3781" />
    <path
       inkscape:connector-curvature="0"
       d="m 98.297,371.86 v -0.78515 c -0.39454,0.61718 -0.97461,0.92578 -1.7402,0.92578 -0.4961,0 -0.95215,-0.13672 -1.3682,-0.41016 -0.41602,-0.27344 -0.73828,-0.65527 -0.9668,-1.1455 -0.22852,-0.49023 -0.34277,-1.0537 -0.34277,-1.6904 0,-0.62109 0.10352,-1.1846 0.31055,-1.6904 0.20703,-0.50585 0.51758,-0.89354 0.93164,-1.1631 0.41406,-0.26953 0.87695,-0.40429 1.3887,-0.4043 0.375,10e-6 0.70898,0.0791 1.002,0.23731 0.29296,0.15821 0.53124,0.36426 0.71484,0.61816 v -3.082 h 1.0488 v 8.5898 z m -3.334,-3.1055 c -2e-6,0.79688 0.16797,1.3926 0.50391,1.7871 0.33594,0.39454 0.73242,0.5918 1.1895,0.5918 0.46093,0 0.85254,-0.18848 1.1748,-0.56543 0.32226,-0.37695 0.48339,-0.95215 0.4834,-1.7256 -5e-6,-0.85155 -0.16407,-1.4766 -0.49219,-1.875 -0.32813,-0.39843 -0.73243,-0.59765 -1.2129,-0.59765 -0.46875,0 -0.86035,0.19141 -1.1748,0.57422 -0.31445,0.38281 -0.47168,0.98633 -0.47168,1.8105 z"
       id="path3783" />
    <path
       inkscape:connector-curvature="0"
       d="m 105.2,369.86 1.0898,0.13476 c -0.17188,0.63672 -0.49024,1.1309 -0.95508,1.4824 -0.46484,0.35157 -1.0586,0.52735 -1.7812,0.52735 -0.91015,0 -1.6318,-0.28028 -2.165,-0.84082 -0.53321,-0.56055 -0.79981,-1.3467 -0.79981,-2.3584 0,-1.0469 0.26953,-1.8594 0.80859,-2.4375 0.53907,-0.57812 1.2383,-0.86718 2.0977,-0.86719 0.83203,10e-6 1.5117,0.28321 2.0391,0.84961 0.52734,0.56641 0.79101,1.3633 0.79102,2.3906 -1e-5,0.0625 -0.002,0.15625 -0.006,0.28125 h -4.6406 c 0.0391,0.68359 0.23242,1.207 0.58008,1.5703 0.34766,0.36328 0.78125,0.54492 1.3008,0.54492 0.38672,0 0.7168,-0.10156 0.99024,-0.30469 0.27343,-0.20312 0.49023,-0.52734 0.65039,-0.97265 z m -3.4629,-1.7051 h 3.4746 c -0.0469,-0.52344 -0.17969,-0.91601 -0.39844,-1.1777 -0.33594,-0.40624 -0.77149,-0.60937 -1.3066,-0.60937 -0.48438,0 -0.8916,0.16211 -1.2217,0.48633 -0.33008,0.32422 -0.5127,0.75781 -0.54785,1.3008 z"
       id="path3785" />
    <path
       inkscape:connector-curvature="0"
       d="m 107.62,371.86 v -6.2226 h 0.94922 v 0.88476 c 0.45703,-0.68359 1.1172,-1.0254 1.9805,-1.0254 0.37499,1e-5 0.71972,0.0674 1.0342,0.20215 0.31445,0.13477 0.5498,0.31153 0.70605,0.53027 0.15625,0.21876 0.26562,0.47852 0.32813,0.7793 0.0391,0.19532 0.0586,0.53711 0.0586,1.0254 v 3.8262 h -1.0547 v -3.7852 c 0,-0.42969 -0.041,-0.75098 -0.12304,-0.96387 -0.082,-0.21289 -0.22755,-0.38281 -0.43653,-0.50977 -0.20898,-0.12694 -0.4541,-0.19042 -0.73535,-0.19043 -0.44922,10e-6 -0.83691,0.14259 -1.1631,0.42774 -0.32618,0.28516 -0.48926,0.82617 -0.48926,1.623 v 3.3984 z"
       id="path3787" />
    <path
       inkscape:connector-curvature="0"
       d="m 117.78,371.86 v -8.5898 h 3.8086 c 0.76562,1e-5 1.3476,0.0772 1.7461,0.23144 0.39843,0.15431 0.71679,0.42677 0.95508,0.81739 0.23828,0.39063 0.35742,0.82227 0.35742,1.2949 0,0.60938 -0.19727,1.123 -0.59179,1.541 -0.39454,0.41798 -1.0039,0.6836 -1.8281,0.79688 0.30078,0.14453 0.52929,0.28711 0.68555,0.42773 0.33202,0.30469 0.64648,0.68555 0.94336,1.1426 l 1.4941,2.3379 h -1.4297 l -1.1367,-1.7871 c -0.33203,-0.51562 -0.60547,-0.91015 -0.82031,-1.1836 -0.21485,-0.27343 -0.40723,-0.46484 -0.57715,-0.57422 -0.16992,-0.10937 -0.34278,-0.18554 -0.51855,-0.22851 -0.12891,-0.0273 -0.33985,-0.041 -0.63281,-0.041 h -1.3184 v 3.8144 z m 1.1367,-4.7988 h 2.4434 c 0.51952,1e-5 0.92577,-0.0537 1.2188,-0.16113 0.29296,-0.10742 0.51561,-0.27929 0.66796,-0.51562 0.15234,-0.23633 0.22851,-0.49316 0.22852,-0.77051 -1e-5,-0.40624 -0.14747,-0.74023 -0.44238,-1.002 -0.29493,-0.26172 -0.76075,-0.39257 -1.3975,-0.39258 h -2.7188 z"
       id="path3789" />
    <path
       inkscape:connector-curvature="0"
       d="m 125.91,368.75 c 0,-1.1523 0.32031,-2.0058 0.96094,-2.5605 0.53515,-0.46093 1.1875,-0.6914 1.957,-0.69141 0.85546,1e-5 1.5547,0.28028 2.0976,0.84082 0.54297,0.56055 0.81445,1.335 0.81446,2.3232 -1e-5,0.80079 -0.12013,1.4307 -0.36035,1.8896 -0.24024,0.45899 -0.58985,0.81543 -1.0488,1.0693 -0.45899,0.2539 -0.95997,0.38086 -1.5029,0.38086 -0.8711,0 -1.5752,-0.2793 -2.1123,-0.83789 -0.53711,-0.5586 -0.80566,-1.3633 -0.80566,-2.4141 z m 1.084,0 c 0,0.79688 0.17383,1.3936 0.52149,1.79 0.34765,0.39649 0.78515,0.59473 1.3125,0.59473 0.52343,0 0.95898,-0.19922 1.3066,-0.59766 0.34765,-0.39843 0.52148,-1.0058 0.52148,-1.8223 0,-0.76953 -0.17481,-1.3525 -0.52441,-1.749 -0.34961,-0.39647 -0.78418,-0.59472 -1.3037,-0.59472 -0.52735,0 -0.96485,0.19727 -1.3125,0.5918 -0.34766,0.39453 -0.52149,0.99023 -0.52149,1.7871 z"
       id="path3791" />
    <path
       inkscape:connector-curvature="0"
       d="m 137.04,371.09 c -0.39063,0.33204 -0.7666,0.56641 -1.1279,0.70313 -0.36133,0.13672 -0.74902,0.20508 -1.1631,0.20508 -0.6836,0 -1.209,-0.16699 -1.5762,-0.50098 -0.36718,-0.33398 -0.55078,-0.76074 -0.55078,-1.2803 0,-0.30469 0.0693,-0.58301 0.20801,-0.83496 0.13867,-0.25195 0.32031,-0.4541 0.54492,-0.60645 0.22461,-0.15234 0.47754,-0.26757 0.75879,-0.3457 0.20703,-0.0547 0.51953,-0.10742 0.9375,-0.1582 0.85156,-0.10156 1.4785,-0.22266 1.8809,-0.36329 0.004,-0.14452 0.006,-0.23632 0.006,-0.27539 0,-0.42968 -0.0996,-0.73241 -0.29883,-0.9082 -0.26953,-0.23828 -0.66992,-0.35742 -1.2012,-0.35742 -0.4961,0 -0.86231,0.0869 -1.0986,0.26074 -0.23633,0.17383 -0.41114,0.48145 -0.52442,0.92285 l -1.0312,-0.14062 c 0.0937,-0.4414 0.24805,-0.79785 0.46289,-1.0693 0.21485,-0.27148 0.52539,-0.48046 0.93165,-0.62695 0.40624,-0.14648 0.87695,-0.21972 1.4121,-0.21973 0.53125,1e-5 0.96289,0.0625 1.2949,0.1875 0.33202,0.12501 0.57616,0.28223 0.73242,0.47168 0.15624,0.18946 0.26562,0.42872 0.32812,0.71777 0.0351,0.1797 0.0527,0.50392 0.0527,0.97266 v 1.4062 c -10e-6,0.98047 0.0224,1.6006 0.0674,1.8604 0.0449,0.25977 0.13378,0.50879 0.2666,0.74707 h -1.1016 c -0.10938,-0.21875 -0.17969,-0.47461 -0.21094,-0.76758 z m -0.0879,-2.3555 c -0.38282,0.15625 -0.95703,0.28906 -1.7226,0.39843 -0.4336,0.0625 -0.74024,0.13282 -0.91993,0.21094 -0.17969,0.0781 -0.31836,0.19239 -0.41601,0.34277 -0.0977,0.1504 -0.14649,0.31739 -0.14649,0.50098 0,0.28125 0.10645,0.51563 0.31934,0.70313 0.21289,0.1875 0.52441,0.28125 0.93457,0.28125 0.40625,0 0.76757,-0.0889 1.084,-0.26661 0.31641,-0.17773 0.54883,-0.42089 0.69727,-0.72949 0.11328,-0.23828 0.16992,-0.58984 0.16992,-1.0547 z"
       id="path3793" />
    <path
       inkscape:connector-curvature="0"
       d="m 143.7,371.86 v -0.78515 c -0.39453,0.61718 -0.97461,0.92578 -1.7402,0.92578 -0.4961,0 -0.95215,-0.13672 -1.3682,-0.41016 -0.41601,-0.27344 -0.73828,-0.65527 -0.96679,-1.1455 -0.22852,-0.49023 -0.34278,-1.0537 -0.34278,-1.6904 0,-0.62109 0.10352,-1.1846 0.31055,-1.6904 0.20703,-0.50585 0.51758,-0.89354 0.93164,-1.1631 0.41406,-0.26953 0.87695,-0.40429 1.3887,-0.4043 0.375,10e-6 0.70898,0.0791 1.002,0.23731 0.29296,0.15821 0.53124,0.36426 0.71484,0.61816 v -3.082 h 1.0488 v 8.5898 z m -3.334,-3.1055 c 0,0.79688 0.16797,1.3926 0.5039,1.7871 0.33594,0.39454 0.73242,0.5918 1.1895,0.5918 0.46093,0 0.85253,-0.18848 1.1748,-0.56543 0.32226,-0.37695 0.4834,-0.95215 0.4834,-1.7256 0,-0.85155 -0.16407,-1.4766 -0.49219,-1.875 -0.32813,-0.39843 -0.73242,-0.59765 -1.2129,-0.59765 -0.46875,0 -0.86035,0.19141 -1.1748,0.57422 -0.31446,0.38281 -0.47168,0.98633 -0.47168,1.8105 z"
       id="path3795" />
  </g>
  <g
     transform="matrix(1.0000325,0,0,1.0000325,-48.713164,-232.76903)"
     id="text3689">
    <path
       inkscape:connector-curvature="0"
       d="m 97.57,385.92 0.15234,0.93164 c -0.29688,0.0625 -0.5625,0.0937 -0.79688,0.0937 -0.38281,0 -0.67969,-0.0605 -0.89062,-0.18164 -0.21094,-0.12109 -0.35938,-0.28027 -0.44531,-0.47754 -0.08594,-0.19726 -0.12891,-0.6123 -0.12891,-1.2451 v -3.5801 h -0.77344 v -0.82031 h 0.77344 v -1.541 l 1.0488,-0.63281 v 2.1738 h 1.0605 v 0.82031 h -1.0605 v 3.6387 c -2e-6,0.30078 0.01855,0.49414 0.05566,0.58008 0.03711,0.0859 0.09765,0.1543 0.18164,0.20508 0.08398,0.0508 0.2041,0.0762 0.36035,0.0762 0.11718,0 0.27148,-0.0137 0.46289,-0.041 z"
       id="path3798" />
    <path
       inkscape:connector-curvature="0"
       d="m 98.203,383.75 c 0,-1.1523 0.32031,-2.0058 0.96094,-2.5605 0.53516,-0.46093 1.1875,-0.6914 1.957,-0.69141 0.85547,1e-5 1.5547,0.28028 2.0977,0.84082 0.54296,0.56055 0.81445,1.335 0.81445,2.3232 0,0.80079 -0.12012,1.4307 -0.36035,1.8896 -0.24024,0.45899 -0.58985,0.81543 -1.0488,1.0693 -0.45899,0.2539 -0.95996,0.38086 -1.5029,0.38086 -0.87109,0 -1.5752,-0.2793 -2.1123,-0.83789 -0.53711,-0.5586 -0.80566,-1.3633 -0.80566,-2.4141 z m 1.084,0 c -1e-6,0.79688 0.17383,1.3936 0.52148,1.79 0.34766,0.39649 0.78516,0.59473 1.3125,0.59473 0.52344,0 0.95898,-0.19922 1.3066,-0.59766 0.34766,-0.39843 0.52148,-1.0058 0.52149,-1.8223 -1e-5,-0.76953 -0.17481,-1.3525 -0.52442,-1.749 -0.34961,-0.39647 -0.78418,-0.59472 -1.3037,-0.59472 -0.52734,0 -0.96484,0.19727 -1.3125,0.5918 -0.34766,0.39453 -0.52149,0.99023 -0.52148,1.7871 z"
       id="path3800" />
    <path
       inkscape:connector-curvature="0"
       d="m 106.42,386.86 -1.9043,-6.2226 h 1.0898 l 0.99023,3.5918 0.36914,1.3359 c 0.0156,-0.0664 0.12304,-0.49414 0.32227,-1.2832 l 0.99023,-3.6445 h 1.084 l 0.93165,3.6094 0.31054,1.1894 0.35742,-1.2012 1.0664,-3.5976 h 1.0254 l -1.9453,6.2226 h -1.0957 l -0.99024,-3.7266 -0.24023,-1.0606 -1.2598,4.7871 z"
       id="path3802" />
    <path
       inkscape:connector-curvature="0"
       d="m 118.01,386.09 c -0.39063,0.33204 -0.7666,0.56641 -1.1279,0.70313 -0.36133,0.13672 -0.74902,0.20508 -1.1631,0.20508 -0.6836,0 -1.209,-0.16699 -1.5762,-0.50098 -0.36719,-0.33398 -0.55079,-0.76074 -0.55079,-1.2803 0,-0.30469 0.0693,-0.58301 0.20801,-0.83496 0.13867,-0.25195 0.32031,-0.4541 0.54492,-0.60645 0.22461,-0.15234 0.47754,-0.26757 0.75879,-0.3457 0.20703,-0.0547 0.51953,-0.10742 0.9375,-0.1582 0.85156,-0.10156 1.4785,-0.22266 1.8809,-0.36329 0.004,-0.14452 0.006,-0.23632 0.006,-0.27539 0,-0.42968 -0.0996,-0.73241 -0.29883,-0.9082 -0.26953,-0.23828 -0.66992,-0.35742 -1.2012,-0.35742 -0.4961,0 -0.86231,0.0869 -1.0986,0.26074 -0.23633,0.17383 -0.41114,0.48145 -0.52442,0.92285 l -1.0312,-0.14062 c 0.0937,-0.4414 0.24805,-0.79785 0.4629,-1.0693 0.21484,-0.27148 0.52538,-0.48046 0.93164,-0.62695 0.40624,-0.14648 0.87695,-0.21972 1.4121,-0.21973 0.53124,1e-5 0.96288,0.0625 1.2949,0.1875 0.33202,0.12501 0.57616,0.28223 0.73242,0.47168 0.15624,0.18946 0.26562,0.42872 0.32812,0.71777 0.0352,0.1797 0.0527,0.50392 0.0527,0.97266 v 1.4062 c -10e-6,0.98047 0.0225,1.6006 0.0674,1.8604 0.0449,0.25977 0.13378,0.50879 0.2666,0.74707 h -1.1016 c -0.10938,-0.21875 -0.17969,-0.47461 -0.21094,-0.76758 z m -0.0879,-2.3555 c -0.38282,0.15625 -0.95703,0.28906 -1.7226,0.39843 -0.4336,0.0625 -0.74024,0.13282 -0.91993,0.21094 -0.17969,0.0781 -0.31836,0.19239 -0.41601,0.34277 -0.0977,0.1504 -0.14649,0.31739 -0.14649,0.50098 0,0.28125 0.10645,0.51563 0.31934,0.70313 0.21289,0.1875 0.52441,0.28125 0.93457,0.28125 0.40625,0 0.76757,-0.0889 1.084,-0.26661 0.31641,-0.17773 0.54883,-0.42089 0.69727,-0.72949 0.11328,-0.23828 0.16992,-0.58984 0.16992,-1.0547 z"
       id="path3804" />
    <path
       inkscape:connector-curvature="0"
       d="m 120.62,386.86 v -6.2226 h 0.94922 v 0.94336 c 0.24219,-0.4414 0.46582,-0.73242 0.6709,-0.87305 0.20508,-0.14062 0.43066,-0.21093 0.67676,-0.21094 0.35546,10e-6 0.71679,0.11329 1.084,0.33985 l -0.36328,0.97851 c -0.25781,-0.15234 -0.51563,-0.22851 -0.77343,-0.22851 -0.23048,0 -0.43751,0.0693 -0.6211,0.208 -0.18359,0.13868 -0.31445,0.33106 -0.39258,0.57715 -0.11719,0.37501 -0.17578,0.78516 -0.17578,1.2305 v 3.2578 z"
       id="path3806" />
    <path
       inkscape:connector-curvature="0"
       d="m 128.67,386.86 v -0.78515 c -0.39453,0.61718 -0.97461,0.92578 -1.7402,0.92578 -0.4961,0 -0.95215,-0.13672 -1.3682,-0.41016 -0.41602,-0.27344 -0.73829,-0.65527 -0.9668,-1.1455 -0.22852,-0.49023 -0.34277,-1.0537 -0.34277,-1.6904 0,-0.62109 0.10351,-1.1846 0.31054,-1.6904 0.20703,-0.50585 0.51758,-0.89354 0.93164,-1.1631 0.41406,-0.26953 0.87695,-0.40429 1.3887,-0.4043 0.37499,10e-6 0.70898,0.0791 1.002,0.23731 0.29296,0.15821 0.53124,0.36426 0.71484,0.61816 v -3.082 h 1.0488 v 8.5898 z m -3.334,-3.1055 c 0,0.79688 0.16797,1.3926 0.50391,1.7871 0.33593,0.39454 0.73242,0.5918 1.1894,0.5918 0.46093,0 0.85254,-0.18848 1.1748,-0.56543 0.32227,-0.37695 0.4834,-0.95215 0.4834,-1.7256 0,-0.85155 -0.16406,-1.4766 -0.49218,-1.875 -0.32813,-0.39843 -0.73243,-0.59765 -1.2129,-0.59765 -0.46876,0 -0.86036,0.19141 -1.1748,0.57422 -0.31445,0.38281 -0.47168,0.98633 -0.47168,1.8105 z"
       id="path3808" />
    <path
       inkscape:connector-curvature="0"
       d="m 130.89,385 1.043,-0.16406 c 0.0586,0.41797 0.22167,0.73828 0.48925,0.96094 0.26758,0.22265 0.6416,0.33398 1.1221,0.33398 0.48438,0 0.84375,-0.0986 1.0781,-0.2959 0.23437,-0.19726 0.35156,-0.42871 0.35156,-0.69433 0,-0.23828 -0.10352,-0.42578 -0.31054,-0.5625 -0.14454,-0.0937 -0.50391,-0.21289 -1.0781,-0.35743 -0.77344,-0.19531 -1.3096,-0.36425 -1.6084,-0.50683 -0.29883,-0.14258 -0.52539,-0.33984 -0.67969,-0.5918 -0.15429,-0.25195 -0.23144,-0.53027 -0.23144,-0.83496 0,-0.27734 0.0635,-0.53417 0.19043,-0.77051 0.12695,-0.23632 0.2998,-0.43261 0.51855,-0.58886 0.16406,-0.12109 0.3877,-0.22363 0.6709,-0.30762 0.2832,-0.084 0.58691,-0.12597 0.91113,-0.12598 0.48828,10e-6 0.91699,0.0703 1.2861,0.21094 0.36913,0.14063 0.64159,0.33106 0.81738,0.57129 0.17578,0.24024 0.29687,0.56153 0.36328,0.96387 l -1.0312,0.14062 c -0.0469,-0.32031 -0.18262,-0.57031 -0.40722,-0.75 -0.22462,-0.17968 -0.542,-0.26953 -0.95215,-0.26953 -0.48438,0 -0.83008,0.0801 -1.0371,0.24023 -0.20704,0.16016 -0.31055,0.34766 -0.31055,0.5625 0,0.13673 0.043,0.25977 0.12891,0.36914 0.0859,0.11329 0.2207,0.20704 0.40429,0.28125 0.10547,0.0391 0.41602,0.12891 0.93164,0.26954 0.74609,0.19922 1.2666,0.3623 1.5615,0.48925 0.29491,0.12696 0.52636,0.31153 0.69433,0.55371 0.16797,0.24219 0.25195,0.54297 0.25196,0.90235 -1e-5,0.35156 -0.10255,0.68262 -0.30762,0.99316 -0.20508,0.31055 -0.50098,0.55078 -0.8877,0.7207 -0.38672,0.16993 -0.82422,0.25489 -1.3125,0.25489 -0.80859,0 -1.4248,-0.16797 -1.8486,-0.50391 -0.42383,-0.33594 -0.69433,-0.83398 -0.81152,-1.4941 z"
       id="path3810" />
    <path
       inkscape:connector-curvature="0"
       d="m 94.195,398.85 1.1367,0.28711 c -0.23829,0.9336 -0.667,1.6455 -1.2861,2.1358 -0.61915,0.49023 -1.376,0.73535 -2.2705,0.73535 -0.92578,0 -1.6787,-0.18848 -2.2588,-0.56543 -0.58008,-0.37696 -1.0215,-0.92285 -1.3242,-1.6377 -0.30274,-0.71484 -0.4541,-1.4824 -0.4541,-2.3027 0,-0.89453 0.1709,-1.6748 0.5127,-2.3408 0.3418,-0.66601 0.82812,-1.1719 1.459,-1.5176 0.63086,-0.3457 1.3252,-0.51855 2.083,-0.51856 0.85937,10e-6 1.582,0.21876 2.168,0.65625 0.58593,0.43751 0.99413,1.0528 1.2246,1.8457 l -1.1191,0.26367 c -0.19922,-0.62499 -0.48829,-1.0801 -0.86719,-1.3652 -0.37891,-0.28515 -0.85547,-0.42773 -1.4297,-0.42774 -0.66016,1e-5 -1.2119,0.15821 -1.6553,0.47461 -0.44336,0.31641 -0.75488,0.74122 -0.93457,1.2744 -0.17969,0.53321 -0.26953,1.083 -0.26953,1.6494 -2e-6,0.73047 0.10644,1.3682 0.31934,1.9131 0.21289,0.54493 0.54394,0.95215 0.99316,1.2217 0.44922,0.26954 0.93554,0.4043 1.459,0.4043 0.63671,0 1.1758,-0.18359 1.6172,-0.55078 0.4414,-0.36719 0.74023,-0.91211 0.89648,-1.6348 z"
       id="path3812" />
    <path
       inkscape:connector-curvature="0"
       d="m 96.609,394.49 v -1.2129 h 1.0547 v 1.2129 z m 0,7.377 v -6.2226 h 1.0547 v 6.2226 z"
       id="path3814" />
    <path
       inkscape:connector-curvature="0"
       d="m 101.58,400.92 0.15234,0.93164 c -0.29688,0.0625 -0.5625,0.0937 -0.79688,0.0937 -0.38281,0 -0.67969,-0.0605 -0.89062,-0.18164 -0.21094,-0.12109 -0.35938,-0.28027 -0.44531,-0.47754 -0.08594,-0.19726 -0.12891,-0.6123 -0.12891,-1.2451 v -3.5801 h -0.77344 v -0.82031 h 0.77344 v -1.541 l 1.0488,-0.63281 v 2.1738 h 1.0606 v 0.82031 h -1.0606 v 3.6387 c 0,0.30078 0.0186,0.49414 0.0557,0.58008 0.0371,0.0859 0.0977,0.1543 0.18164,0.20508 0.084,0.0508 0.2041,0.0762 0.36035,0.0762 0.11719,0 0.27149,-0.0137 0.4629,-0.041 z"
       id="path3816" />
    <path
       inkscape:connector-curvature="0"
       d="m 102.56,404.26 -0.11719,-0.99024 c 0.23047,0.0625 0.43164,0.0937 0.60352,0.0937 0.23437,0 0.42187,-0.0391 0.5625,-0.11718 0.14062,-0.0781 0.25586,-0.18751 0.3457,-0.32813 0.0664,-0.10547 0.17383,-0.36719 0.32227,-0.78516 0.0195,-0.0586 0.0508,-0.14453 0.0937,-0.25781 l -2.3613,-6.2344 h 1.1367 l 1.2949,3.6035 c 0.16797,0.45704 0.31836,0.9375 0.45117,1.4414 0.12109,-0.48438 0.26562,-0.95703 0.4336,-1.418 l 1.3301,-3.627 h 1.0547 l -2.3672,6.3281 c -0.25391,0.68359 -0.45117,1.1543 -0.59179,1.4121 -0.18751,0.34766 -0.40235,0.60254 -0.64453,0.76465 -0.24219,0.16211 -0.53126,0.24316 -0.86719,0.24316 -0.20313,0 -0.42969,-0.043 -0.67969,-0.1289 z"
       id="path3818" />
    <path
       inkscape:connector-curvature="0"
       d="m 118.2,398.85 1.1367,0.28711 c -0.23829,0.9336 -0.667,1.6455 -1.2861,2.1358 -0.61915,0.49023 -1.376,0.73535 -2.2705,0.73535 -0.92578,0 -1.6787,-0.18848 -2.2588,-0.56543 -0.58008,-0.37696 -1.0215,-0.92285 -1.3242,-1.6377 -0.30273,-0.71484 -0.4541,-1.4824 -0.4541,-2.3027 0,-0.89453 0.1709,-1.6748 0.5127,-2.3408 0.34179,-0.66601 0.82812,-1.1719 1.459,-1.5176 0.63086,-0.3457 1.3252,-0.51855 2.083,-0.51856 0.85937,10e-6 1.582,0.21876 2.168,0.65625 0.58593,0.43751 0.99413,1.0528 1.2246,1.8457 l -1.1191,0.26367 c -0.19923,-0.62499 -0.48829,-1.0801 -0.86719,-1.3652 -0.37891,-0.28515 -0.85548,-0.42773 -1.4297,-0.42774 -0.66016,1e-5 -1.2119,0.15821 -1.6553,0.47461 -0.44336,0.31641 -0.75489,0.74122 -0.93457,1.2744 -0.17969,0.53321 -0.26954,1.083 -0.26953,1.6494 -1e-5,0.73047 0.10644,1.3682 0.31933,1.9131 0.21289,0.54493 0.54394,0.95215 0.99317,1.2217 0.44921,0.26954 0.93554,0.4043 1.459,0.4043 0.63671,0 1.1758,-0.18359 1.6172,-0.55078 0.4414,-0.36719 0.74023,-0.91211 0.89648,-1.6348 z"
       id="path3820" />
    <path
       inkscape:connector-curvature="0"
       d="m 124.86,399.86 1.0898,0.13476 c -0.17189,0.63672 -0.49025,1.1309 -0.95508,1.4824 -0.46485,0.35157 -1.0586,0.52735 -1.7812,0.52735 -0.91016,0 -1.6318,-0.28028 -2.165,-0.84082 -0.53321,-0.56055 -0.79981,-1.3467 -0.79981,-2.3584 0,-1.0469 0.26953,-1.8594 0.8086,-2.4375 0.53906,-0.57812 1.2383,-0.86718 2.0976,-0.86719 0.83203,10e-6 1.5117,0.28321 2.0391,0.84961 0.52733,0.56641 0.79101,1.3633 0.79101,2.3906 0,0.0625 -0.002,0.15625 -0.006,0.28125 h -4.6406 c 0.0391,0.68359 0.23242,1.207 0.58008,1.5703 0.34765,0.36328 0.78124,0.54492 1.3008,0.54492 0.38671,0 0.71679,-0.10156 0.99023,-0.30469 0.27343,-0.20312 0.49023,-0.52734 0.65039,-0.97265 z m -3.4629,-1.7051 h 3.4746 c -0.0469,-0.52344 -0.17969,-0.91601 -0.39844,-1.1777 -0.33594,-0.40624 -0.77149,-0.60937 -1.3066,-0.60937 -0.48438,0 -0.8916,0.16211 -1.2217,0.48633 -0.33008,0.32422 -0.51269,0.75781 -0.54785,1.3008 z"
       id="path3822" />
    <path
       inkscape:connector-curvature="0"
       d="m 127.28,401.86 v -6.2226 h 0.94922 v 0.88476 c 0.45703,-0.68359 1.1172,-1.0254 1.9805,-1.0254 0.375,1e-5 0.71972,0.0674 1.0342,0.20215 0.31445,0.13477 0.5498,0.31153 0.70605,0.53027 0.15625,0.21876 0.26562,0.47852 0.32813,0.7793 0.0391,0.19532 0.0586,0.53711 0.0586,1.0254 v 3.8262 h -1.0547 v -3.7852 c -1e-5,-0.42969 -0.041,-0.75098 -0.12305,-0.96387 -0.082,-0.21289 -0.22754,-0.38281 -0.43652,-0.50977 -0.20899,-0.12694 -0.45411,-0.19042 -0.73536,-0.19043 -0.44922,10e-6 -0.83691,0.14259 -1.1631,0.42774 -0.32618,0.28516 -0.48926,0.82617 -0.48926,1.623 v 3.3984 z"
       id="path3824" />
    <path
       inkscape:connector-curvature="0"
       d="m 136.27,400.92 0.15235,0.93164 c -0.29688,0.0625 -0.5625,0.0937 -0.79688,0.0937 -0.38281,0 -0.67969,-0.0605 -0.89062,-0.18164 -0.21094,-0.12109 -0.35938,-0.28027 -0.44531,-0.47754 -0.0859,-0.19726 -0.12891,-0.6123 -0.12891,-1.2451 v -3.5801 h -0.77344 v -0.82031 h 0.77344 v -1.541 l 1.0488,-0.63281 v 2.1738 h 1.0605 v 0.82031 h -1.0605 v 3.6387 c 0,0.30078 0.0186,0.49414 0.0557,0.58008 0.0371,0.0859 0.0977,0.1543 0.18164,0.20508 0.084,0.0508 0.2041,0.0762 0.36035,0.0762 0.11719,0 0.27149,-0.0137 0.46289,-0.041 z"
       id="path3826" />
    <path
       inkscape:connector-curvature="0"
       d="m 141.55,399.86 1.0898,0.13476 c -0.17188,0.63672 -0.49024,1.1309 -0.95507,1.4824 -0.46485,0.35157 -1.0586,0.52735 -1.7812,0.52735 -0.91016,0 -1.6318,-0.28028 -2.165,-0.84082 -0.53321,-0.56055 -0.79981,-1.3467 -0.79981,-2.3584 0,-1.0469 0.26953,-1.8594 0.8086,-2.4375 0.53906,-0.57812 1.2383,-0.86718 2.0976,-0.86719 0.83203,10e-6 1.5117,0.28321 2.0391,0.84961 0.52733,0.56641 0.79101,1.3633 0.79101,2.3906 0,0.0625 -0.002,0.15625 -0.006,0.28125 h -4.6406 c 0.0391,0.68359 0.23242,1.207 0.58007,1.5703 0.34766,0.36328 0.78125,0.54492 1.3008,0.54492 0.38671,0 0.71679,-0.10156 0.99023,-0.30469 0.27343,-0.20312 0.49023,-0.52734 0.65039,-0.97265 z m -3.4629,-1.7051 h 3.4746 c -0.0469,-0.52344 -0.17969,-0.91601 -0.39844,-1.1777 -0.33594,-0.40624 -0.77149,-0.60937 -1.3066,-0.60937 -0.48438,0 -0.8916,0.16211 -1.2217,0.48633 -0.33008,0.32422 -0.51269,0.75781 -0.54785,1.3008 z"
       id="path3828" />
    <path
       inkscape:connector-curvature="0"
       d="m 143.96,401.86 v -6.2226 h 0.94922 v 0.94336 c 0.24219,-0.4414 0.46582,-0.73242 0.6709,-0.87305 0.20508,-0.14062 0.43066,-0.21093 0.67676,-0.21094 0.35546,10e-6 0.71679,0.11329 1.084,0.33985 l -0.36328,0.97851 c -0.25781,-0.15234 -0.51563,-0.22851 -0.77344,-0.22851 -0.23047,0 -0.4375,0.0693 -0.62109,0.208 -0.18359,0.13868 -0.31445,0.33106 -0.39258,0.57715 -0.11719,0.37501 -0.17578,0.78516 -0.17578,1.2305 v 3.2578 z"
       id="path3830" />
  </g>
  <g
     transform="matrix(1.0000325,0,0,1.0000325,-74.087082,-226.16699)"
     id="text3695">
    <path
       inkscape:connector-curvature="0"
       d="m 110.84,424.86 h -2.1953 v -8.2734 c -0.80209,0.75 -1.7474,1.3047 -2.8359,1.6641 v -1.9922 c 0.57291,-0.18749 1.1953,-0.54296 1.8672,-1.0664 0.67187,-0.52342 1.1328,-1.1341 1.3828,-1.832 h 1.7812 z"
       id="path3833" />
  </g>
  <g
     transform="matrix(1.0000325,0,0,1.0000325,-82.795132,-229.8659)"
     id="text3699">
    <path
       inkscape:connector-curvature="0"
       d="m 145.76,425.42 2.1875,-0.22656 c 0.0625,0.49479 0.2474,0.88672 0.55469,1.1758 0.30729,0.28906 0.66145,0.43359 1.0625,0.43359 0.45833,0 0.84635,-0.18619 1.1641,-0.55859 0.3177,-0.37239 0.47656,-0.93359 0.47656,-1.6836 0,-0.70313 -0.15755,-1.2305 -0.47265,-1.582 -0.31511,-0.35155 -0.72527,-0.52733 -1.2305,-0.52734 -0.63021,10e-6 -1.1953,0.27865 -1.6953,0.83594 l -1.7812,-0.25781 1.125,-5.9609 h 5.8047 v 2.0547 h -4.1406 l -0.34375,1.9453 c 0.48958,-0.24479 0.98958,-0.36718 1.5,-0.36719 0.97395,10e-6 1.7995,0.35417 2.4766,1.0625 0.67708,0.70834 1.0156,1.6276 1.0156,2.7578 -10e-6,0.94271 -0.27345,1.7839 -0.82032,2.5234 -0.74479,1.0104 -1.7786,1.5156 -3.1016,1.5156 -1.0573,-10e-6 -1.9193,-0.28386 -2.5859,-0.85157 -0.66666,-0.5677 -1.0651,-1.3307 -1.1953,-2.2891 z"
       id="path3836" />
  </g>
  <g
     transform="matrix(1.0000325,0,0,1.0000325,-77.275568,-233.26874)"
     id="text3703">
    <path
       inkscape:connector-curvature="0"
       d="m 170.77,429.21 2.125,-0.23438 c 0.0521,0.43229 0.18749,0.75261 0.40625,0.96094 0.21874,0.20833 0.50781,0.3125 0.86718,0.3125 0.45313,0 0.83854,-0.20833 1.1562,-0.625 0.31771,-0.41667 0.52083,-1.2812 0.60938,-2.5938 -0.55209,0.64063 -1.2422,0.96094 -2.0703,0.96094 -0.90105,0 -1.6784,-0.34766 -2.332,-1.043 -0.65365,-0.69531 -0.98047,-1.6003 -0.98047,-2.7148 0,-1.1614 0.34505,-2.0976 1.0352,-2.8086 0.69011,-0.71093 1.569,-1.0664 2.6367,-1.0664 1.1615,10e-6 2.1146,0.44923 2.8594,1.3477 0.74478,0.89845 1.1172,2.3763 1.1172,4.4336 0,2.0938 -0.38802,3.6042 -1.1641,4.5312 -0.77605,0.92709 -1.7865,1.3906 -3.0312,1.3906 -0.89583,0 -1.6198,-0.23828 -2.1719,-0.71485 -0.55209,-0.47656 -0.90625,-1.1888 -1.0625,-2.1367 z m 4.9688,-4.7969 c -1e-5,-0.70833 -0.16277,-1.2578 -0.48828,-1.6484 -0.32553,-0.39061 -0.70183,-0.58593 -1.1289,-0.58593 -0.40625,0 -0.74349,0.16016 -1.0117,0.48046 -0.26823,0.32033 -0.40235,0.84506 -0.40234,1.5742 -1e-5,0.73959 0.14583,1.2826 0.4375,1.6289 0.29166,0.34636 0.65624,0.51954 1.0938,0.51953 0.42187,10e-6 0.77734,-0.16666 1.0664,-0.5 0.28906,-0.33333 0.43359,-0.82291 0.4336,-1.4688 z"
       id="path3839" />
  </g>
  <g
     transform="matrix(1.0000325,0,0,1.0000325,-89.855351,-229.26839)"
     id="text3707">
    <path
       inkscape:connector-curvature="0"
       d="m 115.11,460.86 h -2.1953 v -8.2734 c -0.80208,0.75 -1.7474,1.3047 -2.8359,1.6641 v -1.9922 c 0.57291,-0.18749 1.1953,-0.54296 1.8672,-1.0664 0.67187,-0.52342 1.1328,-1.1341 1.3828,-1.832 h 1.7812 z"
       id="path3842" />
    <path
       inkscape:connector-curvature="0"
       d="m 122.11,449.36 c 1.1094,10e-6 1.9766,0.39585 2.6016,1.1875 0.74478,0.93751 1.1172,2.4922 1.1172,4.6641 -1e-5,2.1667 -0.37501,3.724 -1.125,4.6719 -0.6198,0.78125 -1.4844,1.1719 -2.5938,1.1719 -1.1146,-1e-5 -2.013,-0.42839 -2.6953,-1.2852 -0.68229,-0.85677 -1.0234,-2.3841 -1.0234,-4.582 -1e-5,-2.1562 0.37499,-3.7083 1.125,-4.6562 0.61978,-0.78124 1.4844,-1.1719 2.5938,-1.1719 z m 0,1.8203 c -0.26563,0 -0.50261,0.0846 -0.71094,0.2539 -0.20834,0.16928 -0.3698,0.47267 -0.48438,0.91016 -0.15104,0.56771 -0.22656,1.5234 -0.22656,2.8672 0,1.3438 0.0677,2.2669 0.20313,2.7695 0.13541,0.5026 0.30598,0.83724 0.51171,1.0039 0.20573,0.16667 0.44141,0.25 0.70704,0.25 0.26562,0 0.50259,-0.0846 0.71093,-0.2539 0.20833,-0.16927 0.36979,-0.47266 0.48438,-0.91016 0.15103,-0.5625 0.22655,-1.5156 0.22656,-2.8594 -1e-5,-1.3438 -0.0677,-2.2669 -0.20312,-2.7695 -0.13543,-0.50259 -0.306,-0.83853 -0.51172,-1.0078 -0.20574,-0.16926 -0.44141,-0.2539 -0.70703,-0.2539 z"
       id="path3844" />
    <path
       inkscape:connector-curvature="0"
       d="m 138.12,460.86 h -2.5156 l -1,-2.6016 h -4.5781 l -0.94532,2.6016 h -2.4531 l 4.4609,-11.453 h 2.4453 z m -4.2578,-4.5312 -1.5781,-4.25 -1.5469,4.25 z"
       id="path3846" />
  </g>
  <g
     transform="matrix(1.0000325,0,0,1.0000325,-86.425719,-226.17101)"
     id="text3711">
    <path
       inkscape:connector-curvature="0"
       d="m 144.61,457.86 h -2.1953 v -8.2734 c -0.80208,0.75 -1.7474,1.3047 -2.8359,1.6641 v -1.9922 c 0.57292,-0.18749 1.1953,-0.54296 1.8672,-1.0664 0.67187,-0.52342 1.1328,-1.1341 1.3828,-1.832 h 1.7812 z"
       id="path3849" />
    <path
       inkscape:connector-curvature="0"
       d="m 153.52,457.86 h -2.1953 v -8.2734 c -0.80208,0.75 -1.7474,1.3047 -2.8359,1.6641 v -1.9922 c 0.57292,-0.18749 1.1953,-0.54296 1.8672,-1.0664 0.67187,-0.52342 1.1328,-1.1341 1.3828,-1.832 h 1.7812 z"
       id="path3851" />
    <path
       inkscape:connector-curvature="0"
       d="m 157.3,446.41 h 4.5781 c 0.90624,10e-6 1.582,0.0378 2.0273,0.11328 0.44531,0.0755 0.84375,0.23308 1.1953,0.47266 0.35155,0.23959 0.64452,0.5586 0.8789,0.95703 0.23437,0.39844 0.35155,0.84506 0.35156,1.3398 -1e-5,0.53647 -0.14454,1.0286 -0.43359,1.4766 -0.28907,0.44793 -0.681,0.78386 -1.1758,1.0078 0.69791,0.20313 1.2344,0.54948 1.6094,1.0391 0.37499,0.48959 0.56249,1.0651 0.5625,1.7266 -10e-6,0.52084 -0.1211,1.0274 -0.36328,1.5195 -0.24219,0.49219 -0.57292,0.88542 -0.99218,1.1797 -0.41928,0.29427 -0.93621,0.47526 -1.5508,0.54297 -0.38542,0.0417 -1.3151,0.0677 -2.7891,0.0781 h -3.8984 z m 2.3125,1.9062 v 2.6484 h 1.5156 c 0.90104,0 1.4609,-0.013 1.6797,-0.0391 0.39582,-0.0469 0.70702,-0.18358 0.93359,-0.41015 0.22656,-0.22656 0.33984,-0.52474 0.33984,-0.89453 0,-0.35416 -0.0977,-0.64192 -0.29296,-0.86329 -0.19532,-0.22134 -0.48569,-0.35546 -0.8711,-0.40234 -0.22917,-0.026 -0.88802,-0.0391 -1.9766,-0.0391 z m 0,4.5547 v 3.0625 h 2.1406 c 0.83333,0 1.362,-0.0234 1.5859,-0.0703 0.34374,-0.0625 0.62369,-0.21484 0.83984,-0.45703 0.21614,-0.24218 0.32421,-0.5664 0.32422,-0.97265 -1e-5,-0.34375 -0.0833,-0.63542 -0.25,-0.875 -0.16667,-0.23958 -0.40756,-0.41406 -0.72266,-0.52344 -0.31511,-0.10937 -0.9987,-0.16406 -2.0508,-0.16406 z"
       id="path3853" />
  </g>
  <g
     transform="matrix(1.0000325,0,0,1.0000325,-86.787438,-227.26822)"
     id="text3715">
    <path
       inkscape:connector-curvature="0"
       d="m 180.89,458.86 h -2.1953 v -8.2734 c -0.80208,0.75 -1.7474,1.3047 -2.8359,1.6641 v -1.9922 c 0.57292,-0.18749 1.1953,-0.54296 1.8672,-1.0664 0.67187,-0.52342 1.1328,-1.1341 1.3828,-1.832 h 1.7812 z"
       id="path3856" />
    <path
       inkscape:connector-curvature="0"
       d="m 184.21,455.92 2.1875,-0.22656 c 0.0625,0.49479 0.24739,0.88672 0.55468,1.1758 0.30729,0.28906 0.66146,0.43359 1.0625,0.43359 0.45833,0 0.84635,-0.18619 1.1641,-0.55859 0.3177,-0.37239 0.47655,-0.93359 0.47656,-1.6836 -1e-5,-0.70313 -0.15756,-1.2305 -0.47266,-1.582 -0.31511,-0.35155 -0.72526,-0.52733 -1.2305,-0.52734 -0.63021,10e-6 -1.1953,0.27865 -1.6953,0.83594 l -1.7812,-0.25781 1.125,-5.9609 h 5.8047 v 2.0547 h -4.1406 l -0.34375,1.9453 c 0.48958,-0.24479 0.98958,-0.36718 1.5,-0.36719 0.97396,10e-6 1.7995,0.35417 2.4766,1.0625 0.67707,0.70834 1.0156,1.6276 1.0156,2.7578 -1e-5,0.94271 -0.27344,1.7839 -0.82031,2.5234 -0.7448,1.0104 -1.7786,1.5156 -3.1016,1.5156 -1.0573,-10e-6 -1.9193,-0.28386 -2.5859,-0.85157 -0.66667,-0.5677 -1.0651,-1.3307 -1.1953,-2.2891 z"
       id="path3858" />
  </g>
  <path
     style="fill:#729fcf"
     inkscape:connector-curvature="0"
     d="m 18.988519,241.98723 h 31.751032 v 31.75103 H 18.988519 v -31.75103 z"
     id="rect3719" />
  <g
     transform="matrix(1.0000325,0,0,1.0000325,-73.055513,-234.14624)"
     id="text3721">
    <path
       inkscape:connector-curvature="0"
       d="m 96.734,498.86 v -11.453 h 2.25 l 4.6875,7.6484 v -7.6484 h 2.1484 v 11.453 h -2.3203 l -4.6172,-7.4688 v 7.4688 z"
       id="path3862" />
    <path
       inkscape:connector-curvature="0"
       d="m 117.84,498.86 h -2.1953 v -8.2734 c -0.80209,0.75 -1.7474,1.3047 -2.8359,1.6641 v -1.9922 c 0.57291,-0.18749 1.1953,-0.54296 1.8672,-1.0664 0.67187,-0.52342 1.1328,-1.1341 1.3828,-1.832 h 1.7812 z"
       id="path3864" />
  </g>
  <g
     transform="matrix(0.29309957,0,0,0.29309957,-6.713569,109.18404)"
     id="text3725">
    <path
       inkscape:connector-curvature="0"
       d="m 114.39,482.36 v -8.5898 h 1.166 l 4.5117,6.7441 v -6.7441 h 1.0898 v 8.5898 h -1.166 l -4.5117,-6.75 v 6.75 z"
       id="path3867" />
    <path
       inkscape:connector-curvature="0"
       d="m 122.94,474.99 v -1.2129 h 1.0547 v 1.2129 z m 0,7.377 v -6.2226 h 1.0547 v 6.2226 z"
       id="path3869" />
    <path
       inkscape:connector-curvature="0"
       d="m 125.41,482.88 1.0254,0.15234 c 0.043,0.31641 0.16211,0.54688 0.35743,0.69141 0.26171,0.19531 0.61913,0.29296 1.0723,0.29297 0.48828,-1e-5 0.86523,-0.0977 1.1309,-0.29297 0.26562,-0.19532 0.44531,-0.46875 0.53906,-0.82031 0.0547,-0.21485 0.0801,-0.66602 0.0762,-1.3535 -0.46094,0.54297 -1.0352,0.81445 -1.7226,0.81445 -0.85547,0 -1.5176,-0.30859 -1.9863,-0.92578 -0.46875,-0.61718 -0.70313,-1.3574 -0.70312,-2.2207 -1e-5,-0.59375 0.10742,-1.1416 0.32226,-1.6436 0.21484,-0.50194 0.52637,-0.88964 0.93457,-1.1631 0.4082,-0.27343 0.88769,-0.41015 1.4385,-0.41016 0.73437,10e-6 1.3398,0.29688 1.8164,0.89063 v -0.75 h 0.97266 v 5.3789 c -1e-5,0.96875 -0.0986,1.6553 -0.2959,2.0596 -0.19727,0.4043 -0.50977,0.72363 -0.9375,0.95801 -0.42774,0.23437 -0.9541,0.35156 -1.5791,0.35156 -0.74219,0 -1.3418,-0.16699 -1.7988,-0.50097 -0.45703,-0.33399 -0.67773,-0.83692 -0.66211,-1.5088 z m 0.87305,-3.7383 c 0,0.81641 0.16211,1.4121 0.48633,1.7871 0.32421,0.375 0.73046,0.5625 1.2188,0.5625 0.48437,0 0.89062,-0.18653 1.2188,-0.55957 0.32812,-0.37305 0.49218,-0.95801 0.49218,-1.7549 0,-0.76171 -0.16895,-1.3359 -0.50683,-1.7226 -0.3379,-0.38672 -0.74512,-0.58008 -1.2217,-0.58008 -0.46875,0 -0.86719,0.19043 -1.1953,0.57129 -0.32813,0.38086 -0.49219,0.94629 -0.49219,1.6963 z"
       id="path3871" />
    <path
       inkscape:connector-curvature="0"
       d="m 132.29,482.36 v -8.5898 h 1.0547 v 3.082 c 0.49218,-0.57031 1.1133,-0.85546 1.8633,-0.85547 0.46093,10e-6 0.86132,0.0908 1.2012,0.27246 0.33984,0.18165 0.583,0.43263 0.72949,0.75293 0.14648,0.32032 0.21972,0.78516 0.21973,1.3945 v 3.9434 h -1.0547 v -3.9434 c 0,-0.52734 -0.11426,-0.91112 -0.34277,-1.1514 -0.22852,-0.24023 -0.55176,-0.36035 -0.96973,-0.36036 -0.3125,1e-5 -0.60645,0.0811 -0.88183,0.24317 -0.2754,0.16211 -0.47169,0.38184 -0.58887,0.65918 -0.11719,0.27735 -0.17578,0.66016 -0.17578,1.1484 v 3.4043 z"
       id="path3873" />
    <path
       inkscape:connector-curvature="0"
       d="m 141.27,481.42 0.15234,0.93164 c -0.29687,0.0625 -0.5625,0.0937 -0.79687,0.0937 -0.38281,0 -0.67969,-0.0605 -0.89063,-0.18164 -0.21093,-0.12109 -0.35937,-0.28027 -0.44531,-0.47754 -0.0859,-0.19726 -0.1289,-0.6123 -0.1289,-1.2451 v -3.5801 h -0.77344 v -0.82031 h 0.77344 v -1.541 l 1.0488,-0.63281 v 2.1738 h 1.0606 v 0.82031 h -1.0606 v 3.6387 c 0,0.30078 0.0186,0.49414 0.0557,0.58008 0.0371,0.0859 0.0977,0.1543 0.18164,0.20508 0.084,0.0508 0.2041,0.0762 0.36035,0.0762 0.11719,0 0.27148,-0.0137 0.46289,-0.041 z"
       id="path3875" />
    <path
       inkscape:connector-curvature="0"
       d="m 145.71,482.36 v -8.5898 h 3.2226 c 0.65625,1e-5 1.1826,0.0869 1.5791,0.26074 0.39647,0.17384 0.70702,0.44142 0.93164,0.80274 0.2246,0.36133 0.3369,0.73926 0.33691,1.1338 -1e-5,0.3672 -0.0996,0.7129 -0.29883,1.0371 -0.19922,0.32423 -0.5,0.58595 -0.90234,0.78516 0.51952,0.15235 0.91894,0.41211 1.1982,0.7793 0.27929,0.36719 0.41894,0.80078 0.41895,1.3008 -1e-5,0.40234 -0.085,0.77637 -0.25489,1.1221 -0.16993,0.3457 -0.37989,0.6123 -0.62988,0.7998 -0.25001,0.1875 -0.56348,0.32911 -0.94043,0.42481 -0.37696,0.0957 -0.83887,0.14355 -1.3857,0.14355 z m 1.1367,-4.9805 h 1.8574 c 0.5039,10e-6 0.86523,-0.0332 1.084,-0.0996 0.28906,-0.0859 0.50683,-0.22851 0.65332,-0.42773 0.14648,-0.19921 0.21972,-0.44921 0.21973,-0.75 -1e-5,-0.28515 -0.0684,-0.53613 -0.20508,-0.75293 -0.13672,-0.21679 -0.33204,-0.36523 -0.58594,-0.44531 -0.25391,-0.0801 -0.68945,-0.12011 -1.3066,-0.12012 h -1.7168 z m 0,3.9668 h 2.1387 c 0.36718,0 0.62499,-0.0137 0.77344,-0.041 0.26171,-0.0469 0.48046,-0.125 0.65625,-0.23438 0.17577,-0.10937 0.3203,-0.26855 0.43359,-0.47754 0.11327,-0.20898 0.16992,-0.45019 0.16992,-0.72363 0,-0.32031 -0.082,-0.59863 -0.24609,-0.83496 -0.16407,-0.23633 -0.39161,-0.40234 -0.68262,-0.49805 -0.29102,-0.0957 -0.70997,-0.14355 -1.2568,-0.14355 h -1.9863 z"
       id="path3877" />
    <path
       inkscape:connector-curvature="0"
       d="m 157.72,482.36 v -0.91406 c -0.48438,0.70313 -1.1426,1.0547 -1.9746,1.0547 -0.36719,0 -0.70997,-0.0703 -1.0283,-0.21094 -0.31836,-0.14062 -0.55469,-0.31738 -0.70899,-0.53027 -0.1543,-0.21289 -0.26269,-0.47364 -0.32519,-0.78223 -0.043,-0.20703 -0.0645,-0.53515 -0.0645,-0.98437 v -3.8555 h 1.0547 v 3.4512 c 0,0.55078 0.0215,0.92188 0.0645,1.1133 0.0664,0.27734 0.20703,0.49512 0.42188,0.65332 0.21484,0.1582 0.48047,0.23731 0.79687,0.2373 0.31641,1e-5 0.61328,-0.0811 0.89063,-0.24316 0.27734,-0.16211 0.47363,-0.38281 0.58887,-0.66211 0.11523,-0.27929 0.17284,-0.68457 0.17285,-1.2158 v -3.334 h 1.0547 v 6.2226 z"
       id="path3879" />
    <path
       inkscape:connector-curvature="0"
       d="m 159.9,480.5 1.043,-0.16406 c 0.0586,0.41797 0.22168,0.73828 0.48926,0.96094 0.26758,0.22265 0.6416,0.33398 1.1221,0.33398 0.48437,0 0.84375,-0.0986 1.0781,-0.2959 0.23437,-0.19726 0.35155,-0.42871 0.35156,-0.69433 -10e-6,-0.23828 -0.10352,-0.42578 -0.31055,-0.5625 -0.14453,-0.0937 -0.50391,-0.21289 -1.0781,-0.35743 -0.77344,-0.19531 -1.3096,-0.36425 -1.6084,-0.50683 -0.29883,-0.14258 -0.52539,-0.33984 -0.67969,-0.5918 -0.1543,-0.25195 -0.23144,-0.53027 -0.23144,-0.83496 0,-0.27734 0.0635,-0.53417 0.19043,-0.77051 0.12695,-0.23632 0.2998,-0.43261 0.51855,-0.58886 0.16406,-0.12109 0.38769,-0.22363 0.6709,-0.30762 0.2832,-0.084 0.58691,-0.12597 0.91113,-0.12598 0.48828,10e-6 0.91699,0.0703 1.2861,0.21094 0.36914,0.14063 0.6416,0.33106 0.81739,0.57129 0.17577,0.24024 0.29687,0.56153 0.36328,0.96387 l -1.0312,0.14062 c -0.0469,-0.32031 -0.18262,-0.57031 -0.40723,-0.75 -0.22461,-0.17968 -0.54199,-0.26953 -0.95215,-0.26953 -0.48437,0 -0.83008,0.0801 -1.0371,0.24023 -0.20703,0.16016 -0.31054,0.34766 -0.31054,0.5625 0,0.13673 0.043,0.25977 0.1289,0.36914 0.0859,0.11329 0.2207,0.20704 0.4043,0.28125 0.10547,0.0391 0.41601,0.12891 0.93164,0.26954 0.74609,0.19922 1.2666,0.3623 1.5615,0.48925 0.29492,0.12696 0.52637,0.31153 0.69434,0.55371 0.16796,0.24219 0.25195,0.54297 0.25195,0.90235 0,0.35156 -0.10254,0.68262 -0.30761,0.99316 -0.20509,0.31055 -0.50099,0.55078 -0.8877,0.7207 -0.38672,0.16993 -0.82422,0.25489 -1.3125,0.25489 -0.8086,0 -1.4248,-0.16797 -1.8486,-0.50391 -0.42383,-0.33594 -0.69434,-0.83398 -0.81153,-1.4941 z"
       id="path3881" />
  </g>
  <path
     style="fill:#729fcf"
     inkscape:connector-curvature="0"
     d="m 51.248495,241.98723 h 31.751032 v 31.75103 H 51.248495 v -31.75103 z"
     id="rect3729" />
  <g
     transform="matrix(1.0000325,0,0,1.0000325,-74.033494,-232.26664)"
     id="text3731">
    <path
       inkscape:connector-curvature="0"
       d="m 129.23,496.86 v -11.453 h 2.25 l 4.6875,7.6484 v -7.6484 h 2.1484 v 11.453 h -2.3203 l -4.6172,-7.4688 v 7.4688 z"
       id="path3885" />
    <path
       inkscape:connector-curvature="0"
       d="m 144.76,493.92 2.1875,-0.22656 c 0.0625,0.49479 0.2474,0.88672 0.55469,1.1758 0.30729,0.28906 0.66145,0.43359 1.0625,0.43359 0.45833,0 0.84635,-0.18619 1.1641,-0.55859 0.3177,-0.37239 0.47656,-0.93359 0.47656,-1.6836 0,-0.70313 -0.15755,-1.2305 -0.47265,-1.582 -0.31511,-0.35155 -0.72527,-0.52733 -1.2305,-0.52734 -0.63021,10e-6 -1.1953,0.27865 -1.6953,0.83594 l -1.7812,-0.25781 1.125,-5.9609 h 5.8047 v 2.0547 h -4.1406 l -0.34375,1.9453 c 0.48958,-0.24479 0.98958,-0.36718 1.5,-0.36719 0.97395,10e-6 1.7995,0.35417 2.4766,1.0625 0.67708,0.70834 1.0156,1.6276 1.0156,2.7578 -10e-6,0.94271 -0.27345,1.7839 -0.82032,2.5234 -0.74479,1.0104 -1.7786,1.5156 -3.1016,1.5156 -1.0573,-10e-6 -1.9193,-0.28386 -2.5859,-0.85157 -0.66666,-0.5677 -1.0651,-1.3307 -1.1953,-2.2891 z"
       id="path3887" />
  </g>
  <g
     transform="matrix(0.29309957,0,0,0.29309957,34.361633,107.85774)"
     id="text3735">
    <path
       inkscape:connector-curvature="0"
       d="m 85.387,486.86 v -8.5898 h 1.166 l 4.5117,6.7441 v -6.7441 h 1.0898 v 8.5898 h -1.166 l -4.5117,-6.75 v 6.75 z"
       id="path3890" />
    <path
       inkscape:connector-curvature="0"
       d="m 93.941,479.49 v -1.2129 h 1.0547 v 1.2129 z m 0,7.377 v -6.2226 h 1.0547 v 6.2226 z"
       id="path3892" />
    <path
       inkscape:connector-curvature="0"
       d="m 96.414,487.38 1.0254,0.15234 c 0.04297,0.31641 0.16211,0.54688 0.35742,0.69141 0.26172,0.19531 0.61914,0.29296 1.0723,0.29297 0.48828,-1e-5 0.86523,-0.0977 1.1309,-0.29297 0.26562,-0.19532 0.44531,-0.46875 0.53906,-0.82031 0.0547,-0.21485 0.0801,-0.66602 0.0762,-1.3535 -0.46094,0.54297 -1.0352,0.81445 -1.7227,0.81445 -0.85547,0 -1.5176,-0.30859 -1.9863,-0.92578 -0.46875,-0.61718 -0.70312,-1.3574 -0.70312,-2.2207 0,-0.59375 0.10742,-1.1416 0.32227,-1.6436 0.21484,-0.50194 0.52637,-0.88964 0.93457,-1.1631 0.4082,-0.27343 0.88769,-0.41015 1.4385,-0.41016 0.73437,10e-6 1.3398,0.29688 1.8164,0.89063 v -0.75 h 0.97266 v 5.3789 c -1e-5,0.96875 -0.0986,1.6553 -0.2959,2.0596 -0.19727,0.4043 -0.50977,0.72363 -0.9375,0.95801 -0.42774,0.23437 -0.9541,0.35156 -1.5791,0.35156 -0.74219,0 -1.3418,-0.16699 -1.7988,-0.50097 -0.45703,-0.33399 -0.67774,-0.83692 -0.66211,-1.5088 z m 0.87305,-3.7383 c -10e-7,0.81641 0.16211,1.4121 0.48633,1.7871 0.32422,0.375 0.73047,0.5625 1.2188,0.5625 0.48437,0 0.89062,-0.18653 1.2188,-0.55957 0.32812,-0.37305 0.49218,-0.95801 0.49219,-1.7549 -1e-5,-0.76171 -0.16896,-1.3359 -0.50684,-1.7226 -0.3379,-0.38672 -0.74512,-0.58008 -1.2217,-0.58008 -0.46875,0 -0.86719,0.19043 -1.1953,0.57129 -0.32813,0.38086 -0.49219,0.94629 -0.49219,1.6963 z"
       id="path3894" />
    <path
       inkscape:connector-curvature="0"
       d="m 103.29,486.86 v -8.5898 h 1.0547 v 3.082 c 0.49218,-0.57031 1.1133,-0.85546 1.8633,-0.85547 0.46093,10e-6 0.86132,0.0908 1.2012,0.27246 0.33984,0.18165 0.583,0.43263 0.72949,0.75293 0.14648,0.32032 0.21972,0.78516 0.21973,1.3945 v 3.9434 h -1.0547 v -3.9434 c 0,-0.52734 -0.11426,-0.91112 -0.34277,-1.1514 -0.22852,-0.24023 -0.55176,-0.36035 -0.96973,-0.36036 -0.3125,1e-5 -0.60645,0.0811 -0.88183,0.24317 -0.2754,0.16211 -0.47169,0.38184 -0.58887,0.65918 -0.11719,0.27735 -0.17578,0.66016 -0.17578,1.1484 v 3.4043 z"
       id="path3896" />
    <path
       inkscape:connector-curvature="0"
       d="m 112.27,485.92 0.15235,0.93164 c -0.29688,0.0625 -0.56251,0.0937 -0.79688,0.0937 -0.38281,0 -0.67969,-0.0605 -0.89062,-0.18164 -0.21094,-0.12109 -0.35938,-0.28027 -0.44532,-0.47754 -0.0859,-0.19726 -0.1289,-0.6123 -0.1289,-1.2451 v -3.5801 h -0.77344 v -0.82031 h 0.77344 v -1.541 l 1.0488,-0.63281 v 2.1738 h 1.0606 v 0.82031 h -1.0606 v 3.6387 c 0,0.30078 0.0186,0.49414 0.0557,0.58008 0.0371,0.0859 0.0977,0.1543 0.18164,0.20508 0.084,0.0508 0.2041,0.0762 0.36035,0.0762 0.11719,0 0.27148,-0.0137 0.46289,-0.041 z"
       id="path3898" />
    <path
       inkscape:connector-curvature="0"
       d="m 116.71,486.86 v -8.5898 h 3.2226 c 0.65625,1e-5 1.1826,0.0869 1.5791,0.26074 0.39647,0.17384 0.70702,0.44142 0.93164,0.80274 0.2246,0.36133 0.3369,0.73926 0.33691,1.1338 -10e-6,0.3672 -0.0996,0.7129 -0.29883,1.0371 -0.19922,0.32423 -0.5,0.58595 -0.90234,0.78516 0.51952,0.15235 0.91894,0.41211 1.1982,0.7793 0.27929,0.36719 0.41894,0.80078 0.41895,1.3008 -1e-5,0.40234 -0.085,0.77637 -0.25489,1.1221 -0.16993,0.3457 -0.37989,0.6123 -0.62988,0.7998 -0.25001,0.1875 -0.56348,0.32911 -0.94043,0.42481 -0.37696,0.0957 -0.83887,0.14355 -1.3857,0.14355 z m 1.1367,-4.9805 h 1.8574 c 0.5039,10e-6 0.86523,-0.0332 1.084,-0.0996 0.28906,-0.0859 0.50683,-0.22851 0.65332,-0.42773 0.14648,-0.19921 0.21972,-0.44921 0.21973,-0.75 -1e-5,-0.28515 -0.0684,-0.53613 -0.20508,-0.75293 -0.13672,-0.21679 -0.33204,-0.36523 -0.58594,-0.44531 -0.25391,-0.0801 -0.68945,-0.12011 -1.3066,-0.12012 h -1.7168 z m 0,3.9668 h 2.1387 c 0.36718,0 0.62499,-0.0137 0.77344,-0.041 0.26171,-0.0469 0.48046,-0.125 0.65625,-0.23438 0.17577,-0.10937 0.3203,-0.26855 0.43359,-0.47754 0.11327,-0.20898 0.16992,-0.45019 0.16992,-0.72363 0,-0.32031 -0.082,-0.59863 -0.24609,-0.83496 -0.16407,-0.23633 -0.39161,-0.40234 -0.68262,-0.49805 -0.29102,-0.0957 -0.70997,-0.14355 -1.2568,-0.14355 h -1.9863 z"
       id="path3900" />
    <path
       inkscape:connector-curvature="0"
       d="m 128.72,486.86 v -0.91406 c -0.48438,0.70313 -1.1426,1.0547 -1.9746,1.0547 -0.36719,0 -0.70997,-0.0703 -1.0283,-0.21094 -0.31836,-0.14062 -0.55469,-0.31738 -0.70899,-0.53027 -0.1543,-0.21289 -0.26269,-0.47364 -0.32519,-0.78223 -0.043,-0.20703 -0.0645,-0.53515 -0.0645,-0.98437 v -3.8555 h 1.0547 v 3.4512 c 0,0.55078 0.0215,0.92188 0.0645,1.1133 0.0664,0.27734 0.20702,0.49512 0.42187,0.65332 0.21484,0.1582 0.48047,0.23731 0.79688,0.2373 0.3164,1e-5 0.61327,-0.0811 0.89062,-0.24316 0.27734,-0.16211 0.47363,-0.38281 0.58887,-0.66211 0.11523,-0.27929 0.17284,-0.68457 0.17285,-1.2158 v -3.334 h 1.0547 v 6.2226 z"
       id="path3902" />
    <path
       inkscape:connector-curvature="0"
       d="m 130.9,485 1.043,-0.16406 c 0.0586,0.41797 0.22168,0.73828 0.48926,0.96094 0.26758,0.22265 0.6416,0.33398 1.1221,0.33398 0.48437,0 0.84375,-0.0986 1.0781,-0.2959 0.23437,-0.19726 0.35155,-0.42871 0.35156,-0.69433 -10e-6,-0.23828 -0.10352,-0.42578 -0.31055,-0.5625 -0.14453,-0.0937 -0.50391,-0.21289 -1.0781,-0.35743 -0.77344,-0.19531 -1.3096,-0.36425 -1.6084,-0.50683 -0.29883,-0.14258 -0.52539,-0.33984 -0.67969,-0.5918 -0.1543,-0.25195 -0.23144,-0.53027 -0.23144,-0.83496 0,-0.27734 0.0635,-0.53417 0.19043,-0.77051 0.12695,-0.23632 0.2998,-0.43261 0.51855,-0.58886 0.16406,-0.12109 0.38769,-0.22363 0.6709,-0.30762 0.2832,-0.084 0.58691,-0.12597 0.91113,-0.12598 0.48828,10e-6 0.91699,0.0703 1.2861,0.21094 0.36914,0.14063 0.6416,0.33106 0.81739,0.57129 0.17577,0.24024 0.29687,0.56153 0.36328,0.96387 l -1.0312,0.14062 c -0.0469,-0.32031 -0.18262,-0.57031 -0.40723,-0.75 -0.22461,-0.17968 -0.54199,-0.26953 -0.95215,-0.26953 -0.48437,0 -0.83008,0.0801 -1.0371,0.24023 -0.20703,0.16016 -0.31054,0.34766 -0.31054,0.5625 0,0.13673 0.043,0.25977 0.1289,0.36914 0.0859,0.11329 0.2207,0.20704 0.4043,0.28125 0.10547,0.0391 0.41601,0.12891 0.93164,0.26954 0.74609,0.19922 1.2666,0.3623 1.5615,0.48925 0.29492,0.12696 0.52637,0.31153 0.69434,0.55371 0.16796,0.24219 0.25195,0.54297 0.25195,0.90235 0,0.35156 -0.10254,0.68262 -0.30761,0.99316 -0.20509,0.31055 -0.50099,0.55078 -0.8877,0.7207 -0.38672,0.16993 -0.82422,0.25489 -1.3125,0.25489 -0.8086,0 -1.4248,-0.16797 -1.8486,-0.50391 -0.42383,-0.33594 -0.69434,-0.83398 -0.81153,-1.4941 z"
       id="path3904" />
  </g>
  <metadata
     id="metadata3316">
    <rdf:RDF>
      <cc:Work>
        <dc:format>image/svg+xml</dc:format>
        <dc:type
           rdf:resource="http://purl.org/dc/dcmitype/StillImage" />
        <cc:license
           rdf:resource="http://creativecommons.org/licenses/publicdomain/" />
        <dc:publisher>
          <cc:Agent
             rdf:about="http://openclipart.org/">
            <dc:title>Openclipart</dc:title>
          </cc:Agent>
        </dc:publisher>
        <dc:title>Bus stop</dc:title>
        <dc:date>2009-03-25T12:10:20</dc:date>
        <dc:description>Fictitious bus stop in style of UK (London) bus stops. Semi-trace from image</dc:description>
        <dc:source>http://openclipart.org/detail/23289/bus-stop-by-tom</dc:source>
        <dc:creator>
          <cc:Agent>
            <dc:title>tom</dc:title>
          </cc:Agent>
        </dc:creator>
        <dc:subject>
          <rdf:Bag>
            <rdf:li>bus</rdf:li>
            <rdf:li>bus stop</rdf:li>
            <rdf:li>city</rdf:li>
            <rdf:li>clip art</rdf:li>
            <rdf:li>clipart</rdf:li>
            <rdf:li>coach</rdf:li>
            <rdf:li>image</rdf:li>
            <rdf:li>london</rdf:li>
            <rdf:li>media</rdf:li>
            <rdf:li>png</rdf:li>
            <rdf:li>public domain</rdf:li>
            <rdf:li>public transport</rdf:li>
            <rdf:li>road</rdf:li>
            <rdf:li>sign</rdf:li>
            <rdf:li>street</rdf:li>
            <rdf:li>svg</rdf:li>
            <rdf:li>transport</rdf:li>
          </rdf:Bag>
        </dc:subject>
      </cc:Work>
      <cc:License
         rdf:about="http://creativecommons.org/licenses/publicdomain/">
        <cc:permits
           rdf:resource="http://creativecommons.org/ns#Reproduction" />
        <cc:permits
           rdf:resource="http://creativecommons.org/ns#Distribution" />
        <cc:permits
           rdf:resource="http://creativecommons.org/ns#DerivativeWorks" />
      </cc:License>
    </rdf:RDF>
  </metadata>
  <text
     xml:space="preserve"
     style="font-size:20px;font-style:normal;font-weight:normal;line-height:125%;letter-spacing:0px;word-spacing:0px;fill:#000000;fill-opacity:1;stroke:none;font-family:Sans"
     x="87.479042"
     y="130.00359"
     id="text3542"
     sodipodi:linespacing="125%"
     transform="translate(-1.2657083e-6,0)"><tspan
       sodipodi:role="line"
       id="tspan3544"
       x="87.479042"
       y="130.00359" /></text>
</svg>
